<?xml version="1.0"?>
<svg xmlns:rdf="http://www.w3.org/1999/02/22-rdf-syntax-ns#" xmlns="http://www.w3.org/2000/svg" xmlns:cc="http://creativecommons.org/ns#" xmlns:dc="http://purl.org/dc/elements/1.1/" xmlns:svg="http://www.w3.org/2000/svg" id="svg2" viewBox="0 0 221.12 406.58" version="1.0">
  <path id="path2315" d="m150.01 406.17c0.42-2.36-0.19-7.38-0.84-6.97-0.73 0.45 0.28-31.42 1.16-36.35 0.24-1.37 0.32 4.7 0.18 13.5-0.15 8.8-0.09 13.76 0.13 11.03s0.86-5.53 1.43-6.21c0.56-0.68 0.7-1.75 0.31-2.39-0.39-0.63-0.28-1.44 0.26-1.79s1.22-3.34 1.51-6.64 0.33-4.99 0.08-3.75-0.76 2.25-1.15 2.25c-0.38 0-0.37-4.16 0.03-9.25s0.52-17.35 0.28-27.25c-0.25-9.9-0.69-35.77-0.99-57.5-0.3-21.72-0.97-42.42-1.49-46-0.52-3.57-0.96-8.75-0.97-11.5-0.02-4.76-3.2-18.08-4.63-19.38-0.37-0.34-0.36 0.67 0.02 2.25 1.67 6.97 1.4 8.48-0.39 2.13-2.08-7.37-2.49-10.36-0.97-7 1.38 3.06 0.08-5.05-1.74-10.82-0.83-2.65-1.31-5.87-1.07-7.16 0.33-1.7 0.07-2.19-0.95-1.8-0.95 0.37-1.22 1.52-0.85 3.66l0.54 3.12-1.09-2.81c-0.89-2.29-0.78-3.15 0.61-4.69 0.94-1.04 1.47-2.47 1.18-3.19-0.34-0.85-0.55-0.7-0.6 0.44-0.04 0.96-0.48 1.75-0.97 1.75-2.16 0-1.91 3.95 0.92 14.84 1.67 6.41 3.79 17.82 4.71 25.34 0.92 7.53 1.91 13.53 2.21 13.35 0.3-0.19 0.39 1.88 0.2 4.59-0.37 5.26 1.4 9.2 3 6.68 0.66-1.04 0.82-1.05 0.84-0.02 0 0.71-0.6 1.52-1.35 1.81-1 0.38-1.39 2.82-1.46 8.95-0.05 4.64-0.59 9.37-1.21 10.51-0.82 1.53-0.81 2.44 0.03 3.45 1.99 2.39 3.15 21.29 2.59 42-0.95 35.06-4.13 84.29-5.37 83.05-0.72-0.72-0.86-13.55-0.14-13.55 0.55 0 0.9-6.49 1.24-23.5 0.09-4.4 0.59-8.31 1.12-8.68 0.58-0.42 0.49-1.68-0.25-3.31-0.7-1.53-0.78-2.37-0.18-2.01 0.67 0.42 0.89-1.62 0.66-5.9-0.24-4.22-0.01-6.31 0.64-5.91 1.01 0.63 0.68-1.33-0.87-5.1-0.49-1.21-0.41-1.69 0.22-1.3 1.27 0.78 1.2-19.2-0.07-21.19-0.62-0.97-0.54-1.19 0.26-0.7 1.57 0.97 1.53-3.62-0.05-5.2-0.8-0.8-0.83-1.2-0.11-1.2 1.33 0 1.45-12.7 0.14-15.25-0.6-1.17-0.52-1.75 0.25-1.75 0.75 0 0.59-0.85-0.44-2.43-1.19-1.82-1.28-2.55-0.36-2.93 0.86-0.36 0.67-0.96-0.63-2.01-1.08-0.87-1.53-2.01-1.1-2.72 0.43-0.68 0.1-1.69-0.75-2.31-0.82-0.61-1.45-1.55-1.4-2.1 0.06-0.55-0.89-1.14-2.09-1.31-1.55-0.22-2.02-0.79-1.58-1.92 0.35-0.91 0.19-1.34-0.36-1-0.53 0.33-1.62 0.18-2.42-0.32-1.08-0.69-1.12-0.92-0.14-0.93 0.72-0.01 1.03-0.47 0.69-1.02s-1.49-1-2.56-1-1.83-0.56-1.69-1.25c0.15-0.75-0.8-1.24-2.38-1.22-1.74 0.02-2.47-0.4-2.15-1.25 0.6-1.55-0.21-1.62-2.78-0.24-1.34 0.71-1.94 0.71-1.94 0 0-0.57 0.56-1.05 1.25-1.06 0.86-0.01 0.8-0.29-0.2-0.93-0.89-0.56-2.17-0.52-3.33 0.1-1.04 0.56-2.15 0.75-2.47 0.43s0.05-0.59 0.83-0.6c1.1-0.01 1.14-0.19 0.16-0.81-0.7-0.45-3.4-0.62-6-0.39-2.61 0.24-5.86 0.42-7.24 0.41-1.37-0.01-3.06 0.45-3.75 1.02-0.69 0.58-1.25 0.62-1.25 0.11 0-1.24-9.702-0.24-12.097 1.24-0.763 0.47-0.952 0.33-0.51-0.39 0.492-0.79-0.733-1.07-4.095-0.94-2.639 0.11-5.329-0.13-5.978-0.53-0.65-0.4-1.464-0.28-1.809 0.28-0.346 0.56-1.078 1.02-1.628 1.02s-0.692-0.5-0.316-1.11c0.478-0.77-0.295-0.89-2.566-0.39-2.272 0.5-3.044 0.38-2.566-0.39 0.388-0.63 0.01-1.11-0.875-1.11-0.858 0-1.559 0.45-1.559 1s-0.45 1-1 1-1-0.71-1-1.57c0-1.11-0.581-1.38-2-0.93-1.198 0.38-2 0.18-2-0.5s-0.802-0.88-2-0.5c-1.162 0.37-2 0.18-2-0.45 0-0.67-1.07-0.85-2.75-0.49-1.866 0.41-2.321 0.3-1.416-0.34 1.807-1.28-1.276-2.5-4.225-1.68-1.473 0.41-1.707 0.31-0.775-0.34 1.841-1.27-0.81-2.28-3.894-1.47-1.505 0.39-2.026 0.22-1.569-0.52 0.782-1.27-2.738-3.51-3.815-2.43-0.388 0.39-1.145-0.08-1.681-1.04s-1.879-1.74-2.984-1.74-1.745-0.43-1.422-0.95-0.438-1.49-1.691-2.15c-1.253-0.65-2.638-1.8-3.078-2.55-0.44-0.74-1.627-1.35-2.639-1.35-1.138 0-1.786-0.67-1.7-1.75 0.101-1.28-0.501-1.68-2.243-1.49-1.903 0.21-2.156-0.01-1.259-1.09 1.32-1.59 0.524-2.67-1.967-2.67-0.976 0-2.1-0.53-2.497-1.17-0.491-0.79-0.172-0.96 0.993-0.51 1.074 0.41 1.473 0.26 1.067-0.39-0.357-0.58-1.758-1.47-3.113-1.99-1.354-0.51-2.172-1.41-1.816-1.98 0.355-0.58 0.074-1.74-0.626-2.58-1.037-1.25-1.007-1.7 0.164-2.45 1.01-0.65 1.955-0.29 3.186 1.19 1.124 1.35 1.758 1.62 1.772 0.74 0.013-0.79 0.882-0.31 2.074 1.14 1.402 1.71 2.215 2.1 2.568 1.23 0.348-0.86 1.182-0.42 2.565 1.33 1.355 1.73 2.288 2.22 2.756 1.46 0.462-0.74 1.287-0.25 2.384 1.42 2.084 3.18 1.289 3.2-4.155 0.09-2.357-1.35-3.971-1.95-3.586-1.32 0.473 0.76 0.079 0.91-1.214 0.46-1.797-0.63-1.791-0.58 0.086 0.9 1.1 0.86 1.902 1.95 1.782 2.4-0.12 0.46 0.529 1.44 1.442 2.18 1.407 1.14 1.529 1.13 0.804-0.07-0.648-1.07-0.438-1.26 0.86-0.76 1.11 0.42 1.477 0.27 1.038-0.44-0.907-1.47 3.785-0.02 4.865 1.5 0.524 0.74 0.738 0.61 0.632-0.38-0.088-0.82-0.093-2.17-0.01-3 0.132-1.32 0.299-1.31 1.369 0.04 1.504 1.9 11.609 6.15 12.828 5.39 0.49-0.3 0.89-0.07 0.89 0.51s1.26 1.06 2.8 1.06 3.396 0.56 4.125 1.25c1.006 0.95 1.43 0.96 1.762 0.06 0.29-0.78 1.131-0.49 2.493 0.87 1.53 1.53 2.252 1.74 2.821 0.82s1.016-0.79 1.744 0.51c0.538 0.96 1.604 1.54 2.367 1.28s1.942 0.25 2.619 1.12c0.981 1.27 1.405 1.33 2.088 0.29 0.689-1.04 1.101-1 2.101 0.2 1.145 1.38 9.358 3.34 11.506 2.74 0.509-0.14 3.096-0.27 5.75-0.29 2.653-0.03 4.824-0.41 4.824-0.85 0-0.45 0.9-0.58 2-0.29s2 0.1 2-0.42 1.35-0.75 2.999-0.5c1.65 0.24 3 0 3-0.54 0-0.53 1.13-0.76 2.5-0.49 1.38 0.26 2.5 0.05 2.5-0.46 0-1.41 20.32-0.73 23.13 0.77 1.3 0.7 2.37 1.13 2.37 0.95 0-0.17 1.09 0.03 2.42 0.45 2.37 0.76 6.85 5.3 8.33 8.44 0.67 1.44 0.37-3.77-0.84-14.41-0.25-2.2-0.61-6.02-0.8-8.5-0.2-2.47-0.45-4.5-0.57-4.5s-0.38-2.19-0.59-4.88c-0.2-2.68-1.09-5.67-1.97-6.64-1.25-1.39-1.32-1.87-0.29-2.21 1.06-0.36 1.05-0.76-0.08-2.13-0.77-0.93-1.12-1.96-0.79-2.3 0.34-0.33 0.09-1.56-0.55-2.72-0.64-1.17-1.05-3.13-0.9-4.37s-0.24-2.25-0.87-2.25c-0.66 0-0.88-0.79-0.53-1.92 0.34-1.05 0.14-2.2-0.43-2.55-0.57-0.36-1.04-1.75-1.04-3.09s-0.5-2.44-1.11-2.44-0.86-0.64-0.56-1.43c0.31-0.78-0.05-1.92-0.79-2.53-0.73-0.61-1.12-1.93-0.86-2.94 0.29-1.07-0.16-2.07-1.08-2.42-0.86-0.33-1.33-1.22-1.04-1.98s-0.14-1.93-0.95-2.61c-0.82-0.68-1.27-1.82-0.99-2.53 0.27-0.72-0.09-1.92-0.81-2.68s-1.36-1.83-1.42-2.38c-0.25-2.35-1.69-5.5-2.51-5.5-0.48 0-0.88-0.85-0.88-1.89s-0.7-2.17-1.56-2.5-1.3-1.02-0.99-1.53c0.32-0.52-0.42-1.65-1.65-2.51-1.24-0.86-1.67-1.57-0.96-1.57 0.7 0 1.06-0.36 0.78-0.8-0.27-0.44-2.43-0.91-4.81-1.05-2.37-0.14-5.26-0.88-6.42-1.64-1.98-1.29-2.18-1.15-3.24 2.39-1.36 4.54-4.428 7.59-6.739 6.7-0.915-0.35-2.298-0.11-3.073 0.54-1.116 0.92-1.975 0.63-4.123-1.41l-2.714-2.58-2.426 3.89c-2.75 4.4-4.44 5.37-6.985 4.01-0.971-0.52-2.753-0.69-3.96-0.37-2.78 0.72-5.801-1.91-6.656-5.8l-0.639-2.91-2.765 2.96c-3.58 3.83-7.91 5.01-9.651 2.63-1.406-1.93-4.421-1.47-6.45 0.98-1.583 1.91-5.87 1.88-6.607-0.04-0.316-0.83-1.8-1.5-3.299-1.5-2.933 0-5.895-3.84-4.589-5.96 0.435-0.7-0.726-0.54-3.005 0.41-4.698 1.96-5.015 1.95-7.179-0.34-0.984-1.04-2.657-2.06-3.717-2.25-3.705-0.69-3.681-5.16 0.061-11.37l3.418-5.67-4.276 0.79c-7.849 1.46-11.263 1.13-11.379-1.11-0.057-1.1-0.6195-3.27-1.25-4.82-1.6752-4.11-1.4419-5.3 1.4886-7.61 2.0024-1.57 2.2424-2.1 1-2.19-4.2104-0.33-5.6348-1.45-5.6348-4.453 0-1.35-0.5374-3.315-1.1943-4.366-2.1182-3.392 0.3164-6.395 8.3465-10.294 4.041-1.962 9.562-3.877 12.268-4.254l4.921-0.687-7.207-3.691c-9.8021-5.022-14.134-8.611-14.134-11.709-0.0002-1.369 0.6217-2.727 1.3818-3.019 0.7602-0.292 1.6655-2.303 2.0119-4.469l0.6297-3.938h5.4886c5.931 0 6.587-0.615 3.488-3.268-2.546-2.18-2.546-3.776 0-4.442 1.1-0.288 2-1.348 2-2.357 0-1.008 0.643-2.193 1.429-2.633s1.348-1.25 1.25-1.8c-0.255-1.426 6.843-1.826 9.278-0.523 2.434 1.303 2.447 1.234 0.595-3.197-1.752-4.195-1.031-7.78 1.564-7.78 1.036 0 1.884-0.482 1.884-1.071 0-1.555 2.615-3.929 4.327-3.929 0.808 0 4.051 1.358 7.205 3.017l5.736 3.017-0.556-4.14c-0.715-5.332-0.059-6.894 2.895-6.894 1.316 0 2.393-0.45 2.393-1s0.9-1 2-1 2-0.45 2-1c0-1.51 2.658-1.199 4.367 0.511 1.348 1.347 1.544 1.106 1.822-2.228 0.297-3.5752 0.504-3.7711 4.738-4.4888 2.435-0.4127 4.736-1.2496 5.113-1.8598 0.377-0.6101 1.76-0.9574 3.073-0.7718 2.339 0.3307 3.712 2.4715 8.232 12.837 1.416 3.247 1.531 3.314 1.591 0.932 0.114-4.589 3.011-12.352 5.899-15.809 2.472-2.9601 3.086-3.2352 4.974-2.2273 1.64 0.8774 2.61 0.8588 4.11-0.07839 1.64-1.0216 2.32-0.91517 4.02 0.63209 1.14 1.0234 2.1 2.8034 2.14 3.9557 0.05 1.4497 0.25 1.633 0.63 0.595 1.05-2.8462 3.61-5 5.95-5 1.29-0.00003 2.34 0.45 2.34 1s1.11 1 2.47 1c2.87 0 4.53 2.543 4.53 6.9342 0 3.7167 1.21 3.9177 3.41 0.5657 1.14-1.7399 2.54-2.4999 4.61-2.4999 1.64 0 2.98 0.4414 2.98 0.9809s1.13 1.265 2.51 1.612c1.39 0.346 2.89 1.306 3.36 2.132 0.66 1.187 1.27 1.269 2.92 0.389 3.22-1.727 5.18-1.331 6.16 1.25 0.49 1.3 1.61 2.636 2.47 2.968 1.79 0.684 2.06 4.289 0.61 8.091-0.87 2.29-0.69 2.623 1.75 3.224 5.36 1.32 6.9 3.046 6.97 7.826 0.07 4.804 0.1 4.785-7.17 6.017-3.51 0.594-14.58 6.682-14.58 8.017 0 0.698 3.76-0.182 13.3-3.111 10.2-3.132 12.7-3.136 12.7-0.018 0 1.307 0.64 2.91 1.43 3.561 2.17 1.801 0.18 6.245-4.88 10.911l-4.3 3.96 4.4 1.232c5.03 1.409 6.03 2.44 4.32 4.489-0.65 0.794-0.92 2.157-0.58 3.029 0.33 0.872 0.16 2.415-0.38 3.43-1.27 2.359-12.23 7.862-17.28 8.669l-3.86 0.618 3.69 3.785c2.99 3.059 3.57 4.277 3.05 6.355-0.35 1.414-1.18 2.461-1.83 2.327s-1.21 0.267-1.23 0.896c-0.03 0.62-1.29 2.37-2.8 3.88-2.44 2.45-3.25 2.68-7.25 2.14-2.47-0.34-4.5-0.46-4.5-0.26 0 0.21 0.67 1.66 1.49 3.24 0.83 1.57 1.5 3.8 1.5 4.96 0.01 2.19-2.84 5.4-4.79 5.4-0.63 0-1.82 1.3-2.64 2.88s-2.18 3.14-3.02 3.47c-1.65 0.63-2.04 5.27-0.81 9.65l0.69 2.5 0.76-3c0.65-2.59 0.7-2.48 0.34 0.81-0.23 2.09-0.13 4.53 0.21 5.42 0.54 1.42 0.72 1.38 1.43-0.3 0.59-1.42 0.75-1.01 0.61 1.57-0.12 1.93 0.25 3.42 0.8 3.32 0.58-0.1 0.84 1.28 0.61 3.26-0.34 2.93-0.14 3.34 1.33 2.78 1.45-0.56 1.56-0.36 0.68 1.29-1.17 2.18 0 4.97 1.64 3.96 0.7-0.44 0.85 0.57 0.46 3.02-0.43 2.65-0.28 3.48 0.55 2.97 0.79-0.49 1.16 0.3 1.16 2.4 0 2.03 0.39 2.88 1.11 2.43 0.73-0.45 0.89-0.01 0.48 1.3-0.71 2.24 0.22 5.5 1.37 4.79 0.41-0.25 0.54 0.65 0.28 2.01-0.28 1.48-0.01 2.47 0.69 2.47 0.64 0 1.09 0.56 1 1.25s-0.11 2.15-0.03 3.25c0.11 1.67 0.29 1.75 1.11 0.5 0.54-0.82 0.74-2.69 0.43-4.15s-0.07-2.96 0.52-3.32c0.59-0.37 0.81-1.09 0.49-1.61-0.32-0.51 0.09-1.6 0.9-2.41 0.82-0.82 1.23-2.39 0.93-3.53-0.36-1.38-0.1-1.97 0.78-1.77 0.73 0.16 1.51-0.58 1.74-1.64s1-2.51 1.72-3.23 1.05-2.28 0.73-3.48c-0.38-1.46-0.2-1.94 0.56-1.48 0.7 0.43 1.4-0.37 1.83-2.08 0.38-1.53 1.3-3.38 2.03-4.11s1.33-2.2 1.33-3.26 0.45-1.93 1-1.93 1-0.62 1-1.38 0.68-1.94 1.5-2.62c0.83-0.68 1.5-2.34 1.5-3.68 0-1.37 0.44-2.17 1-1.82 0.59 0.36 1-0.68 1-2.5 0-2.1 0.38-2.89 1.16-2.4 0.82 0.51 0.97-0.2 0.51-2.49-0.4-2.01-0.27-2.98 0.35-2.6 0.54 0.34 0.98-0.51 0.98-1.89s-0.5-2.81-1.11-3.19c-0.62-0.38-0.71-0.95-0.2-1.3 0.5-0.35 1.47-2.56 2.16-4.91 1.27-4.34 3.65-5.05 2.57-0.77-0.32 1.28-0.13 2.61 0.42 2.95s1.37 3.65 1.81 7.36c0.92 7.67 0.92 7.89-0.11 11.12-0.52 1.63-0.41 2.16 0.35 1.69 1.58-0.98 1.37 0.7-0.36 2.99-1.67 2.21-2.03 4.87-0.53 3.94 1.63-1 1.14 1.14-0.58 2.57-0.93 0.77-1.4 2.27-1.13 3.64 0.27 1.42-0.15 2.67-1.05 3.17-0.82 0.46-1.49 2.02-1.49 3.46s-0.62 3.14-1.37 3.76c-0.76 0.63-1.38 1.96-1.38 2.96s-0.45 2.1-0.99 2.44c-0.55 0.33-1.5 1.55-2.12 2.71-0.95 1.77-0.87 2 0.49 1.47 2.16-0.82 2.04-0.1-0.38 2.32-2.06 2.06-2.78 4.6-1 3.5 1.42-0.88 1.24 0.84-0.25 2.43-0.93 0.99-0.95 1.43-0.08 1.75 0.84 0.31 0.69 1.28-0.5 3.4-1.47 2.61-1.49 3.07-0.17 3.94 1.25 0.82 1.28 1.13 0.13 1.86-0.76 0.49-1.15 1.5-0.89 2.25 0.27 0.76-0.16 2.66-0.96 4.23-0.79 1.57-0.96 2.56-0.36 2.19 0.59-0.37 1.08-0.18 1.08 0.42s-0.67 1.35-1.5 1.67c-1.71 0.65-2.05 3.36-0.43 3.36 0.59 0 0.14 1.19-1 2.63-2.17 2.76-2.77 4.92-1.08 3.88 0.57-0.35 0.73 0.05 0.39 0.93-0.32 0.85-0.94 1.33-1.37 1.07-0.43-0.27-1.02 0.43-1.32 1.56-0.44 1.69-0.28 1.84 0.92 0.84 1.02-0.84 0.84 0.22-0.62 3.61-1.57 3.66-1.77 5-0.84 5.57 0.87 0.54 0.92 1.14 0.18 2.08-0.87 1.1-1.17 13.18-0.38 14.83 0.14 0.28 0.25 2.86 0.25 5.75 0.01 3.13 0.45 5.25 1.11 5.25 0.73 0 0.7 0.4-0.11 1.2-1.44 1.45-1.62 5.18-0.2 4.3 1.25-0.77 1.27 0.52 0.05 2.45-0.5 0.8-0.66 1.88-0.34 2.39 0.32 0.52 0.57 12.12 0.56 25.8-0.01 13.67 0.37 24.86 0.86 24.86 0.92 0 1.33-2.9 0.96-6.9-0.12-1.32 0.37-2.77 1.09-3.21 0.76-0.47 1.19-2.19 1.02-4.1-0.22-2.51-0.04-2.93 0.74-1.79 0.87 1.27 1.06 1.19 1.2-0.5 0.09-1.1 0.08-3.35-0.03-5-0.14-2.14 0.08-2.6 0.74-1.62 0.74 1.1 1.07 0.95 1.61-0.74 0.37-1.17 0.36-2.63-0.02-3.24-0.38-0.62-0.13-1.48 0.57-1.91s1.32-2.17 1.38-3.87 0.62-3.29 1.24-3.53c0.63-0.24 0.92-1.68 0.67-3.26-0.31-1.95-0.16-2.42 0.48-1.5 0.76 1.08 1.07 1.02 1.58-0.33 0.35-0.91 0.68-2.86 0.72-4.33s0.32-2.08 0.61-1.35c0.59 1.48 3.31-3.04 3.31-5.49 0-0.8 0.4-1.2 0.9-0.89 1.03 0.63 2.1-1.7 2.1-4.58 0-1.09 0.46-1.7 1.01-1.35 0.56 0.34 1.28-0.72 1.61-2.38 0.34-1.65 1.23-3.24 1.99-3.53 0.77-0.3 1.39-1.75 1.39-3.24 0-1.48 0.3-2.4 0.66-2.04 1.17 1.18 3.34-1.49 3.34-4.11 0-1.4 0.3-2.25 0.66-1.89 1.46 1.47 3.24-1.58 2.71-4.66-0.38-2.22-0.25-2.75 0.44-1.77 0.79 1.12 1.18 1 2.08-0.69 0.61-1.14 1.11-2.58 1.11-3.21 0-0.62 0.68-1.81 1.5-2.63 0.83-0.83 1.5-2.82 1.5-4.43s0.45-2.93 1-2.93 1.02-0.79 1.03-1.75c0.02-0.96 0.7-2.62 1.5-3.69 0.81-1.07 1.47-3.23 1.47-4.81s0.38-2.63 0.85-2.34c1.02 0.63 3.4-4.19 2.67-5.38-0.28-0.45 0.16-1.08 0.99-1.39 0.82-0.32 1.49-1.74 1.49-3.17 0-1.47 0.43-2.32 1-1.97 0.55 0.34 1-0.25 1-1.32 0-1.06 0.68-2.5 1.5-3.18 0.83-0.68 1.5-1.89 1.5-2.68s0.48-1.14 1.07-0.78 1.31-0.27 1.61-1.4c0.44-1.71 0.76-1.84 1.85-0.75 0.72 0.72 1.46 1.94 1.63 2.71 0.33 1.49-1.43 6.7-3.75 11.05-1.75 3.3-1.82 5.21-0.16 4.24 0.69-0.4 0.52 0.13-0.38 1.19-2.06 2.42-3.56 6.96-1.98 5.99 0.61-0.38 1.11-0.2 1.11 0.4s-0.67 1.35-1.5 1.67c-0.87 0.33-1.5 1.83-1.5 3.59 0 2.72 0.17 2.88 1.75 1.66 1.67-1.29 1.67-1.26 0 0.71-2.03 2.39-2.31 5.39-0.5 5.43 0.76 0.02 0.57 0.55-0.5 1.36-0.96 0.73-1.75 2.35-1.75 3.59 0 1.9 0.24 2.06 1.5 1.02 0.87-0.72 1.5-0.81 1.5-0.23 0 0.56-0.67 1.28-1.5 1.59-0.82 0.32-1.5 1.29-1.5 2.17 0 0.9 0.48 1.29 1.1 0.91 0.74-0.46 0.71 0.05-0.08 1.53-0.66 1.22-0.92 3.3-0.59 4.62 0.35 1.37 0.17 2.41-0.41 2.41-0.56 0-1.02 0.93-1.02 2.06s0.45 1.78 1 1.44 1-0.14 1 0.44-0.4 1.06-0.88 1.06c-0.49 0-1.1 1.13-1.36 2.5-0.27 1.38-0.12 2.5 0.32 2.5s0.16 1.24-0.63 2.75c-0.78 1.51-1.02 2.89-0.52 3.05 0.49 0.17 0.28 1.5-0.48 2.97-0.9 1.72-1.03 2.87-0.37 3.28 0.62 0.38 0.4 1.14-0.58 1.95-0.87 0.73-1.39 1.83-1.16 2.45 0.24 0.62-0.16 1.95-0.88 2.94-0.73 0.99-1.08 2.44-0.78 3.21 0.29 0.77 0.05 1.4-0.54 1.4s-1.58 0.95-2.2 2.12c-0.8 1.49-0.81 1.92-0.04 1.44 0.61-0.37 1.1-0.25 1.1 0.27 0 0.53-0.64 1.2-1.43 1.51-0.79 0.3-1.97 1.54-2.62 2.76-1.05 1.96-0.97 2.13 0.68 1.55 1.62-0.57 1.59-0.42-0.23 1.14-3.23 2.75-4.89 6.29-3.38 7.22 0.93 0.57 0.87 0.97-0.25 1.62-1.81 1.06-4.15 5.33-3.36 6.11 0.32 0.32 0.2 1.07-0.26 1.67-1.4 1.83-2.21 4.75-1.14 4.08 1.52-0.93 1.18 1.11-0.4 2.42-1.51 1.25-2.87 6.37-1.46 5.5 0.47-0.29 0.85-0.05 0.85 0.53s-0.45 1.06-1 1.06-1 0.93-1 2.06c0 1.27 0.43 1.79 1.13 1.36 0.69-0.43 0.93-0.16 0.63 0.69-0.28 0.76-1.02 1.28-1.63 1.14-0.62-0.14-1.13 0.88-1.13 2.25 0 1.38 0.42 2.5 0.94 2.5s0.3 1.24-0.49 2.75c-1.88 3.6-1.82 4.32 0.3 3.55 1.62-0.59 1.63-0.5 0.14 1.28-1.8 2.15-3.2 6.73-1.8 5.86 0.5-0.31 0.91-0.11 0.91 0.44s-0.4 1.25-0.88 1.55-1.09 1.63-1.34 2.96c-0.36 1.89-0.11 2.3 1.13 1.87 1.03-0.36 0.81 0.21-0.66 1.63-2.32 2.25-3.02 5.11-1.25 5.11 0.55 0 0.06 0.94-1.09 2.09-1.21 1.21-1.89 2.88-1.61 3.96 0.32 1.22-0.35 2.41-1.95 3.46-1.82 1.19-2.28 2.14-1.78 3.7 0.52 1.65 0.32 1.96-0.95 1.47-1.55-0.59-1.79-0.28-2.02 2.57-0.05 0.69-1.89 2.06-4.07 3.05-2.19 0.99-4.29 2.31-4.68 2.94-0.51 0.83-1.12 0.78-2.26-0.17-1.82-1.51-5.06-0.64-4 1.08 0.43 0.68 0.29 0.89-0.34 0.5-1.57-0.97-4.44 0.41-3.88 1.86 0.26 0.68-0.03 1.75-0.65 2.37-0.83 0.83-0.77 1.12 0.24 1.12 1.03 0 0.95 0.44-0.3 1.83-2.21 2.43-2.17 4.58 0.07 3.72 1.33-0.51 1.21-0.12-0.5 1.71-2.38 2.53-2.98 5.74-1.07 5.74 0.69 0 0.49 0.73-0.5 1.83-0.98 1.08-1.66 3.52-1.66 5.94 0 2.26-0.46 4.4-1.02 4.75-0.57 0.34-0.96 0.26-0.89-0.2zm16.51-46.94c1.37-3.1 2.24-5.87 1.94-6.17s-0.54-0.3-0.54 0-1.12 3.07-2.49 6.17c-1.36 3.09-2.24 5.62-1.94 5.62s1.66-2.53 3.03-5.62zm2.42 1.6c2.21-3.12 10.38-24.98 9.33-24.98-0.33 0-0.11-0.58 0.47-1.29 0.59-0.71 2.14-4.99 3.45-9.51 1.3-4.52 2.57-8.03 2.8-7.8 0.24 0.23 0.48-0.85 0.53-2.4 0.08-2.19-0.25-2.69-1.5-2.22-1.38 0.51-1.42 0.37-0.23-1.09 0.8-0.99 0.94-1.69 0.32-1.69-1.27 0-2.55 3.6-1.75 4.91 0.32 0.5 0.01 1.11-0.68 1.34-0.99 0.33-0.96 0.78 0.11 2.09 0.98 1.18 1.03 1.66 0.19 1.66-0.71 0-0.95 0.76-0.6 1.86 0.34 1.07-0.06 2.39-0.94 3.12-0.83 0.7-1.52 1.91-1.52 2.7s-0.44 1.16-0.99 0.83c-0.54-0.34-0.75-0.01-0.47 0.73s-0.15 3.24-0.97 5.55c-1.04 2.97-1.14 4.21-0.33 4.21 0.63 0 0.31 0.61-0.72 1.36-1.02 0.75-1.96 1.99-2.07 2.75-0.55 3.58-2.83 10.69-4.97 15.54-1.3 2.94-2.2 5.35-1.99 5.35s1.34-1.36 2.53-3.02zm-8.87-4.03c0.28 0.84 1.22-0.42 2.25-3.01 0.97-2.44 2.35-5.79 3.06-7.44 1.72-3.98 7.2-20.3 7.95-23.66 0.32-1.46 0.85-3.48 1.18-4.5 0.51-1.56 0.42-1.61-0.58-0.34-0.94 1.2-1.03 0.9-0.45-1.5 0.4-1.65 0.84-4.8 0.97-7 0.14-2.2 0.99-5.71 1.89-7.79 1.6-3.7 1.43-5.71-0.48-5.71-0.52 0-0.94 0.48-0.94 1.06s0.53 0.73 1.17 0.34c0.8-0.5 0.96-0.17 0.5 1.02-0.37 0.96-0.67 2.02-0.67 2.35 0 0.34-0.7-0.26-1.55-1.33-1.51-1.87-1.52-1.87-0.5 0.24 1.58 3.28 1.29 4.62-0.87 4.05-1.25-0.33-1.76-0.07-1.46 0.71 0.25 0.67 0 2.44-0.58 3.94-0.66 1.76-0.68 2.51-0.04 2.12 1.53-0.95 1.19 0.63-0.41 1.89-0.77 0.61-2.77 5.26-4.43 10.33-2.85 8.7-2.94 9.43-1.56 13 1.39 3.58 1.31 4.23-1.56 12.28-1.69 4.75-2.81 6.96-2.54 5 0.42-3.07 0.25-2.89-1.43 1.5-1.05 2.75-1.91 5.68-1.92 6.5 0 0.83 0.57-0.07 1.26-1.99 0.77-2.11 1.45-2.93 1.74-2.06zm5.07-22.37c-0.65-1.42-0.81-2.58-0.36-2.58 0.46 0 1.37-1.91 2.03-4.25s1.58-5.15 2.05-6.25 1.62-4.16 2.56-6.81 1.95-4.57 2.24-4.28-0.02 1.86-0.7 3.48c-0.67 1.63-0.95 3.83-0.61 4.89 0.72 2.25-3.73 12.55-4.94 11.45-0.45-0.4-0.53 0.06-0.18 1.02 0.34 0.96 0.28 2.69-0.14 3.83-0.75 2.01-0.81 2-1.95-0.5zm13.82 13.81c1.06-3.09 1.65-6.09 1.29-6.66-0.35-0.57-0.17-0.75 0.41-0.39 0.62 0.38 1.32-0.88 1.72-3.1 0.37-2.06 0.94-4.82 1.25-6.14 1.04-4.3-1.39-1.36-3.01 3.63-1.67 5.2-3.66 12.47-3.62 13.27 0.02 0.28-0.67 2.17-1.53 4.22-1.97 4.73-1.97 5.83 0 3.01 0.86-1.22 2.42-4.75 3.49-7.84zm-10.22-0.16c1.45-2.2 2.45-5.44 2.67-8.63l0.35-5.1-1.81 5c-0.99 2.75-2.74 7.48-3.9 10.5-1.15 3.03-1.54 4.66-0.86 3.63s2.27-3.46 3.55-5.4zm14.07-1.73c-0.03-1.31-0.51-0.79-1.39 1.5-1.78 4.63-1.78 6.12 0 3 0.79-1.37 1.41-3.4 1.39-4.5zm-18.92-4c0-0.55-0.44-0.32-0.97 0.5-0.53 0.83-0.97 1.95-0.97 2.5s0.44 0.33 0.97-0.5c0.53-0.82 0.97-1.95 0.97-2.5zm0.02-2.58c0 0.78 0.25 1.18 0.53 0.89 0.29-0.29 0.23-1.3-0.13-2.25-0.53-1.37-0.84-1.45-1.51-0.39-0.47 0.73-0.85 1.78-0.85 2.33s0.44 0.33 0.97-0.5c0.8-1.24 0.97-1.25 0.99-0.08zm10.33-7.54c-0.47-1.21-0.77-1.27-1.39-0.26-0.94 1.52-0.18 3.15 1.1 2.36 0.48-0.3 0.62-1.24 0.29-2.1zm-12.34-12.28c2.68-7.83 3.84-13.23 6.13-28.6 0.09-0.55 0.45 0.58 0.81 2.5l0.65 3.5 1.71-3.2c2.1-3.91 2.12-4.3 0.22-4.3-0.82 0-1.5-0.73-1.5-1.62 0-1.34 0.27-1.4 1.52-0.36 1.28 1.06 1.42 0.99 0.9-0.38-0.35-0.9-0.15-1.64 0.44-1.64 0.6 0 0.79-0.75 0.43-1.68-0.57-1.5-0.72-1.47-1.39 0.25-0.71 1.81-0.76 1.8-0.83-0.21-0.09-2.65 2.35-8.61 3.18-7.78 0.34 0.34 0.37 1.25 0.07 2.02-0.29 0.77-0.08 1.4 0.47 1.4 1.09 0 2.64-4.6 2.36-7-0.1-0.82 0.55-0.21 1.43 1.37 1.49 2.66 1.48 3.16-0.12 6.73-0.96 2.11-2.08 3.63-2.51 3.37-0.42-0.26-0.51 0.5-0.2 1.69 0.42 1.6 0.23 1.95-0.75 1.34-0.85-0.52-1.07-0.42-0.62 0.3 0.38 0.61-0.01 2.78-0.86 4.81-2.32 5.55-0.95 5.36 1.69-0.24 1.26-2.68 2.93-5.37 3.7-5.98 0.81-0.63 1.14-1.83 0.76-2.8-0.37-0.98-0.24-1.44 0.32-1.09 0.54 0.32 1.26-1.23 1.62-3.45 0.36-2.23 0.99-4.05 1.42-4.05s1.71-1.46 2.86-3.25c2.59-4.06 2.8-2.62 0.22 1.63-1.03 1.72-2.17 4.25-2.52 5.62-0.36 1.38 0.7 0.03 2.34-3 4.83-8.92 3.49-3.99-1.93 7.11-5.89 12.04-7.63 14.52-4.31 6.14 0.66-1.64 0.59-1.64-1.1 0.03-1.28 1.27-1.6 2.55-1.12 4.46 0.67 2.67 0.68 2.67 3.4-1.78 4.22-6.91 9.29-19.38 8.6-21.17-0.34-0.88 0.09-2.98 0.96-4.65 1.96-3.79 2.02-5.54 0.07-2.14-1.72 3.01-1.95 2.09-0.35-1.42 0.63-1.39 1.49-2.31 1.9-2.05 0.42 0.26 0.51-0.5 0.2-1.68-0.42-1.61-0.23-1.96 0.75-1.35 0.82 0.51 1.07 0.42 0.66-0.24-0.36-0.58-0.36-2.49-0.01-4.24 0.46-2.29 0.88-2.81 1.52-1.85 0.57 0.84 0.67 0.23 0.28-1.67-0.39-1.92-0.28-2.54 0.3-1.72 0.61 0.87 0.9 0.23 0.91-2 0-1.8 0.24-4.63 0.54-6.28s0.34-2.44 0.1-1.75c-0.25 0.69-0.85 1.25-1.34 1.25s-0.67 0.59-0.39 1.32c0.28 0.72 0.06 2.41-0.49 3.75-0.91 2.23-0.97 2.14-0.79-1.07 0.14-2.29-0.21-3.42-1-3.26-0.7 0.14-0.98-0.39-0.65-1.25 0.31-0.81 1.04-1.19 1.62-0.83 0.66 0.41 0.75 0.16 0.24-0.66-0.63-1.01-1.11-0.89-2.17 0.57-0.76 1.03-1.14 2.47-0.86 3.2 0.28 0.74 0.11 1.09-0.37 0.79-1.35-0.83-5.42 5.2-8.56 12.69-1.56 3.71-3.25 6.75-3.75 6.75s-0.63 0.45-0.29 1 0.12 1-0.5 1c-0.61 0-0.84 0.45-0.5 1s0.2 1-0.3 1c-2.2 0-7.54 15.23-8.06 23-0.13 1.9-0.39 2.16-1.07 1.07-0.65-1.02-1.5 0.54-3.03 5.59-1.18 3.85-2.24 8.1-2.37 9.42-0.13 1.33-1.06 4.83-2.07 7.79-1.36 3.95-2.09 5-2.78 4-0.67-0.97-0.77-0.73-0.33 0.83 0.36 1.3-0.21 3.89-1.41 6.38-2.17 4.49-1.89 6.44 0.77 5.43 1.32-0.5 1.4-0.38 0.4 0.63-0.69 0.69-1.23 2.18-1.21 3.31 0.04 1.86 0.17 1.81 1.38-0.45 0.74-1.37 2.79-6.73 4.56-11.9zm12.02-47.04c0-1.07 0.4-2.19 0.89-2.49 0.5-0.31 0.83 0.57 0.75 1.94-0.16 2.91-1.64 3.41-1.64 0.55zm4.03-2.56c0-0.55 0.44-1.67 0.97-2.5 0.53-0.82 0.97-1.05 0.97-0.5s-0.44 1.68-0.97 2.5c-0.53 0.83-0.97 1.05-0.97 0.5zm4.04-3c0-0.55 0.64-2.12 1.43-3.5 0.79-1.37 1.43-2.05 1.43-1.5s-0.64 2.13-1.43 3.5c-0.79 1.38-1.43 2.05-1.43 1.5zm3.93-0.8c0-0.34 0.83-2.78 1.84-5.41 1.02-2.64 2.15-5.64 2.53-6.68 0.37-1.04 0.89-1.68 1.15-1.43 0.26 0.26-0.65 3.32-2.01 6.8-2.32 5.92-3.51 8.2-3.51 6.72zm-4.93-3.2c0-0.55 0.64-2.12 1.43-3.5 0.79-1.37 1.43-2.05 1.43-1.5s-0.64 2.13-1.43 3.5c-0.79 1.38-1.43 2.05-1.43 1.5zm11.02-12.5c-0.03-0.82 0.38-2.17 0.91-3 1.18-1.83 1.18-0.25 0 2.5-0.57 1.32-0.88 1.49-0.91 0.5zm-16.25 78.25c-0.09-0.41 0.14-1.42 0.49-2.25 1.57-3.62 3.53-11.41 3.07-12.17-0.29-0.46-0.09-0.83 0.43-0.83 1.33 0 2.29-4.28 1.2-5.37-0.53-0.53-1.56 1.5-2.53 4.99-0.9 3.23-2.28 7.87-3.07 10.31-1.7 5.25-1.75 6.07-0.43 6.07 0.55 0 0.93-0.34 0.84-0.75zm12.08-17.25c-0.04-0.99-0.35-0.82-0.92 0.5-1.18 2.75-1.18 4.33 0 2.5 0.53-0.82 0.95-2.17 0.92-3zm-0.42-7.82c0.55 0.18 1.46-1.48 2.03-3.68 1.81-7.07 3.61-11.53 4.44-11.02 0.44 0.27 0.78-0.06 0.76-0.74-0.11-3.11 0.34-4.81 1.16-4.31 0.49 0.3 0.86-0.01 0.84-0.69-0.12-3.21 0.36-4.8 1.26-4.25 0.59 0.37 0.72-0.08 0.33-1.1-0.41-1.07-0.27-1.47 0.38-1.07 1.03 0.63 5.48-8.25 6.69-13.32 0.32-1.37 0.33-1.93 0.02-1.24-0.73 1.58-2.41 0.62-2.41-1.38 0-0.82 0.38-1.27 0.84-0.98 0.46 0.28 0.73-1.15 0.6-3.19-0.36-5.79-0.5-5.94-2.02-2.21l-1.44 3.5 0.42-4.25c0.56-5.75-0.66-5.36-2.65 0.85-1.59 4.96-1.58 5.09 0.31 4.59 2.16-0.56 2.19-0.51 1.34 1.72-0.34 0.87-1.01 1.33-1.5 1.03-0.5-0.31-0.9 0.17-0.9 1.06 0 0.97-0.46 1.33-1.15 0.9-0.73-0.45-0.89-0.27-0.42 0.49 0.41 0.66 0.22 1.83-0.43 2.61-0.64 0.78-0.91 1.84-0.58 2.36 0.32 0.53 0.16 2.01-0.35 3.3-0.85 2.1-0.95 2.14-1.04 0.34-0.08-1.47-0.49-1.11-1.57 1.36-1.64 3.79-1.94 6.43-0.46 4.14 0.53-0.82 0.97-1.05 0.97-0.5 0 1.54-1.8 4.03-2.68 3.71-1.21-0.45-6.38 14.61-5.26 15.31 0.53 0.33 0.98-0.22 0.99-1.21 0-1 0.5-2.48 1.09-3.31 0.91-1.27 0.99-1.23 0.52 0.25-0.33 1.01-0.05 1.76 0.65 1.77 0.89 0.01 0.91 0.21 0.08 0.75-0.63 0.4-1.87 3.17-2.75 6.16-1.88 6.34-2.04 8.79-0.31 4.75 0.66-1.55 1.65-2.67 2.2-2.5zm1.5-10.48c0-1.3 4.21-11.82 4.59-11.45 0.46 0.47-2.97 10.47-3.93 11.42-0.36 0.36-0.66 0.38-0.66 0.03zm6.03-15.2c0-0.55 0.44-1.67 0.97-2.5 0.53-0.82 0.97-1.05 0.97-0.5s-0.44 1.68-0.97 2.5c-0.53 0.83-0.97 1.05-0.97 0.5zm4.05-3c0-0.55 0.87-2.57 1.92-4.5 1.05-1.92 1.92-3.05 1.92-2.5s-0.87 2.58-1.92 4.5c-1.05 1.93-1.92 3.05-1.92 2.5zm-16.73 30.96c-0.33-0.85-0.81-1.33-1.07-1.07-0.27 0.26-0.18 0.96 0.18 1.54 0.99 1.6 1.56 1.29 0.89-0.47zm-10.56-7.6c-0.25-0.75-0.7-0.29-1.06 1.06-0.43 1.66-0.3 2.05 0.44 1.31 0.58-0.58 0.86-1.65 0.62-2.37zm-17.05-30.07c-0.19-4.01-0.34-0.99-0.34 6.71-0.01 7.7 0.15 10.98 0.34 7.29 0.19-3.68 0.19-9.98 0-14zm27.07 15.68c-0.31-0.3-0.87 0.25-1.24 1.24-0.55 1.42-0.43 1.54 0.55 0.56 0.69-0.68 1-1.49 0.69-1.8zm-6.81-2.47c0-0.55-0.48-1-1.06-1s-0.78 0.45-0.44 1 0.82 1 1.06 1 0.44-0.45 0.44-1zm-28.11-25.5c-0.07-1.65-0.23-1.56-0.89 0.5-0.44 1.38-0.88 2.05-0.97 1.5-0.1-0.55-0.37-2.04-0.61-3.31-0.3-1.65-0.07-2.1 0.83-1.56 0.69 0.41-0.37-1.24-2.36-3.67-1.98-2.43-5.58-5.43-8-6.67l-4.39-2.26 3.5 0.51c3.19 0.47 3.28 0.42 1.02-0.56-1.36-0.6-3.54-0.82-4.84-0.49s-2.91 0.15-3.56-0.39c-0.74-0.62-3.08-0.68-6.16-0.16l-4.96 0.82 4.07 0.12c9.57 0.28 22.78 7.14 23.15 12.02 0.09 1.21-0.28 1.87-0.85 1.52-0.55-0.34-0.77-1.24-0.48-2 0.34-0.88-1.12-2.35-3.97-4.02-2.48-1.45-4.71-2.44-4.95-2.2-0.25 0.24 1.35 1.45 3.54 2.69 2.2 1.23 3.99 2.91 3.99 3.73s1.22 3.02 2.72 4.89c2.8 3.51 4.34 3.14 4.17-1.01zm7.77 1.25c-0.27-0.69-0.5-0.12-0.5 1.25 0 1.38 0.23 1.94 0.5 1.25 0.28-0.69 0.28-1.81 0-2.5zm51.67-10.02c-0.7-1.14-2.33 0.17-2.33 1.87 0 1.21 0.25 1.25 1.4 0.19 0.76-0.71 1.18-1.63 0.93-2.06zm-3.98-0.27c-0.33-0.85-0.81-1.33-1.07-1.07-0.27 0.26-0.18 0.96 0.18 1.54 0.99 1.6 1.56 1.29 0.89-0.47zm-60.29-2.34c-0.55-1.04-1.79-2.19-2.76-2.56-1.31-0.5-1.14-0.02 0.65 1.88 2.85 3.04 3.49 3.24 2.11 0.68zm63.33-2.62c0.73-3.44-0.7-1.54-1.88 2.5-0.48 1.64-0.4 2.16 0.25 1.5 0.54-0.55 1.27-2.35 1.63-4zm-51.67-6.77c-0.22-1.78-0.4-0.08-0.39 3.77 0 3.85 0.18 5.3 0.4 3.23 0.22-2.08 0.21-5.23-0.01-7zm-24.72 8.27c0-0.55-1.09-1-2.42-1s-3.24-0.29-4.25-0.65c-1.26-0.44-1.52-0.32-0.83 0.41 1.76 1.85 7.5 2.8 7.5 1.24zm74-0.56c0-0.86-0.45-1.28-1-0.94s-1 1.04-1 1.56 0.45 0.94 1 0.94 1-0.7 1-1.56zm-130.81-1.12c-0.722-0.29-1.584-0.26-1.916 0.08-0.333 0.33 0.258 0.56 1.312 0.52 1.165-0.05 1.402-0.28 0.604-0.6zm41.812-0.32c1.33-0.86 1.33-0.96 0-0.88-0.82 0.04-2.62 0.44-4 0.88l-2.5 0.8 2.5 0.09c1.38 0.04 3.18-0.36 4-0.89zm-7.5-2c-0.61-0.98 4.3-1.55 9.5-1.09 2.44 0.21 2.45 0.18 0.5-1.28-1.86-1.39-1.68-1.46 2.5-1.1 3.77 0.33 4.01 0.26 1.5-0.45l-3-0.84 3.08-0.12c2.03-0.08 3.09-0.64 3.09-1.62 0-0.82-0.57-1.5-1.25-1.5-0.69 0-1.41-0.48-1.61-1.08-0.24-0.72-2.49-0.83-6.82-0.34-4.84 0.55-5.96 0.94-4.47 1.58 1.47 0.63 1.03 0.77-1.7 0.55-2.07-0.16-3.43 0.11-3.11 0.63 0.33 0.53-0.76 0.73-2.51 0.48-1.74-0.26-2.845-0.06-2.526 0.46 0.506 0.82 6.086 0.51 14.826-0.82 2.43-0.37 2.62-0.28 1 0.47-1.1 0.51-3.57 0.99-5.5 1.07-2.83 0.11-3.12 0.3-1.5 0.95 1.15 0.46-0.86 0.59-4.73 0.29-4.486-0.34-7.223-0.11-8.189 0.69-1.106 0.92-1.966 0.93-3.602 0.06-1.182-0.63-2.363-0.94-2.625-0.68-0.48 0.48 6.467 3.24 10.147 4.03 3.919 0.84 7.619 0.66 6.999-0.34zm-8.768-2.66c0.677-0.27 2.027-0.29 2.998-0.03 0.97 0.25 0.42 0.47-1.229 0.5-1.65 0.02-2.446-0.19-1.769-0.47zm21.018-4c0.69-0.28 1.81-0.28 2.5 0s0.13 0.5-1.25 0.5c-1.37 0-1.94-0.22-1.25-0.5zm-2-2c0.69-0.28 1.81-0.28 2.5 0s0.13 0.5-1.25 0.5c-1.37 0-1.94-0.22-1.25-0.5zm-52.749 8.27c0-0.22-0.675-0.65-1.5-0.97s-1.5-0.14-1.5 0.39 0.675 0.97 1.5 0.97 1.5-0.18 1.5-0.39zm73.999-2.41c-0.82-0.26-2.24-0.85-3.15-1.32-1.3-0.66-1.55-0.45-1.17 0.98 0.36 1.38 1.13 1.71 3.15 1.32 1.66-0.32 2.11-0.69 1.17-0.98zm-74.812-0.88c-0.722-0.29-1.584-0.26-1.916 0.08-0.333 0.33 0.258 0.56 1.312 0.52 1.165-0.05 1.402-0.28 0.604-0.6zm-12.521-1.82c0-0.82-0.401-1.5-0.892-1.5s-0.607-0.56-0.259-1.25 0.037-0.54-0.691 0.34c-1.434 1.72-4.261 1.43-3.176-0.33 0.396-0.64 0.187-0.78-0.521-0.34-1.259 0.78-10.609-3.27-9.686-4.19 1.02-1.02-3.269-3.23-5.11-2.64-1.487 0.49-1.554 0.4-0.36-0.44 0.809-0.57 1.211-1.3 0.892-1.62-0.318-0.32-1.109 0.06-1.757 0.84-1.407 1.7 2.314 4.29 13.378 9.32 8.259 3.76 8.182 3.74 8.182 1.81zm8.334 0.5c-0.825-0.53-1.95-0.97-2.5-0.97s-0.325 0.44 0.5 0.97 1.95 0.97 2.5 0.97 0.325-0.44-0.5-0.97zm143.6-1.73c-0.33-0.33-0.56 0.26-0.52 1.31 0.05 1.17 0.28 1.41 0.6 0.61 0.29-0.72 0.26-1.59-0.08-1.92zm-139.85 1.04c-2.038-0.53-2.3-1.92-0.5-2.65 0.789-0.32 0.644-0.53-0.393-0.58-0.904-0.04-1.891 0.57-2.194 1.36-0.572 1.49 0.754 2.43 3.337 2.37 1.008-0.03 0.926-0.19-0.25-0.5zm142.85-2.04c-0.33-0.33-0.56 0.26-0.52 1.31 0.05 1.17 0.28 1.41 0.6 0.61 0.29-0.72 0.26-1.59-0.08-1.92zm-149.16-0.82c-1.87-1.5-1.85-1.53 0.559-1.01 1.375 0.3 1.934 0.28 1.244-0.03-0.691-0.32-1.006-0.99-0.699-1.48 0.307-0.5-0.14-0.64-0.993-0.31-0.856 0.33-1.552 0.07-1.552-0.57s-0.454-0.89-1.008-0.55c-0.554 0.35-1.715-0.08-2.581-0.95-0.865-0.86-1.968-1.32-2.451-1.03-0.483 0.3-1.685 0.12-2.67-0.4-4.227-2.22-12.73-5.06-10.849-3.61 1.068 0.82 2.643 1.5 3.5 1.51 1.375 0.01 1.381 0.13 0.059 1.06-1.157 0.81-0.957 0.9 0.875 0.38 1.381-0.39 2.134-0.28 1.8 0.26-0.317 0.51 0.414 0.89 1.624 0.85 1.365-0.04 2.09 0.45 1.91 1.3-0.185 0.88 0.269 1.16 1.25 0.78 0.847-0.32 1.541-0.13 1.541 0.42 0 0.56 1.912 1.86 4.25 2.9 5.265 2.34 6.728 2.51 4.191 0.48zm141.58 0.18c0 0.48 0.44 0.2 0.97-0.63 0.53-0.82 0.74-2.24 0.45-3.14-0.28-0.91 0.24-3.52 1.15-5.8s1.43-4.37 1.15-4.66c-0.28-0.28-1.19 1.43-2.03 3.8-0.83 2.36-2.27 6.08-3.21 8.25-1.5 3.51-1.51 3.81-0.1 2.63 0.88-0.73 1.61-0.93 1.62-0.45zm5.15-2.86c-0.74-0.74-0.87-0.35-0.44 1.31 0.36 1.35 0.81 1.81 1.06 1.06 0.24-0.72-0.04-1.79-0.62-2.37zm-49.17-0.97c0-2.33-0.3-2.9-1.1-2.1-0.6 0.6-0.8 2.04-0.43 3.2 0.95 3.01 1.53 2.59 1.53-1.1zm52.6 0.47c-0.33-0.33-0.56 0.26-0.52 1.31 0.05 1.17 0.28 1.41 0.6 0.61 0.29-0.72 0.26-1.59-0.08-1.92zm-167.1-1.27c-0.34-0.55-0.817-1-1.059-1-0.243 0-0.441 0.45-0.441 1s0.476 1 1.059 1c0.582 0 0.781-0.45 0.441-1zm114.74-8.5c0.36 1.35 0.57 0.94 0.64-1.28 0.07-1.81 0.8-4.9 1.62-6.87 2.47-5.91 1.72-6.14-2-0.63-2.71 4.03-3.48 6.17-3.42 9.49l0.07 4.29 1.29-3.5c1.06-2.91 1.37-3.16 1.8-1.5zm56.04-1.54c-0.29-1.12-0.76-1.82-1.03-1.54-0.54 0.54 0.41 3.58 1.13 3.58 0.24 0 0.19-0.92-0.1-2.04zm-5.24-5.54c2.1-4.91 2.55-7.04 0.88-4.16-1.74 2.98-3.98 8.74-3.4 8.74 0.3 0 1.44-2.06 2.52-4.58zm1.56 1.85c-0.33-0.33-0.56 0.26-0.52 1.31 0.05 1.17 0.28 1.41 0.6 0.61 0.29-0.72 0.26-1.59-0.08-1.92zm5.22-2.47c0.28-3.7-0.25-3.5-1.2 0.45-0.36 1.51-0.29 2.75 0.15 2.75s0.92-1.44 1.05-3.2zm-3.44-7.35c0.34-0.89 0.18-1.29-0.39-0.94-0.54 0.33-0.99 1.03-0.99 1.55 0 1.44 0.72 1.12 1.38-0.61zm-54.39-3.76c0-0.44-0.44-0.53-0.99-0.19s-0.99 1.38-0.98 2.31c0.01 1.46 0.15 1.48 0.98 0.19 0.53-0.82 0.98-1.86 0.99-2.31zm4.05 0.38c1.09 1.75 4.31-9.46 3.68-12.78-0.78-4.08 2.16-16.1 6.38-26 2.15-5.07 4.63-12.27 5.5-16 1.55-6.64 2.19-20.83 1-22.02-0.33-0.33-0.61 1.16-0.61 3.31-0.02 3.02-0.26 3.57-1.06 2.42-0.77-1.1-0.9-0.29-0.49 3 0.39 3.18 0.28 3.91-0.37 2.5-0.7-1.51-0.95-1.61-1-0.4-0.04 0.88-0.97 2.63-2.07 3.9s-2 2.89-2 3.61c0 2.41-2.28 6.33-3.32 5.69-0.62-0.38-0.77 0.03-0.38 1.04 0.35 0.91 0.19 1.66-0.35 1.66-0.55 0-1.51 1.24-2.15 2.75s-3.34 7.25-6.01 12.75c-4.74 9.76-4.87 10.26-5.29 21l-0.43 11 1.39-7.86c1.85-10.46 5.58-21.64 7.22-21.64 1.73 0 1.68 0.72-0.68 9.24-2.38 8.58-2.4 8.85-0.62 8.17 0.76-0.29 1.66-2.27 2-4.39s0.96-4 1.37-4.19c0.42-0.18 1.77-3.25 3-6.83 2.35-6.81 2.4-5.93 0.13 2.5-0.74 2.75-1.75 5.29-2.24 5.64s-0.59 1.14-0.21 1.75 0.28 1.11-0.22 1.11c-0.81 0-1.74 4.29-3.69 17-0.3 1.93-0.25 2.89 0.09 2.14 0.51-1.1 0.79-1.12 1.43-0.07zm1.18-5.57c0.01-1.1 0.36-3.35 0.78-5 0.69-2.69 0.77-2.75 0.78-0.5 0.01 1.38-0.34 3.63-0.78 5-0.63 1.96-0.8 2.07-0.78 0.5zm-0.02-26.7c-1.54-1.54-1.56-4.8-0.03-4.8 0.64 0 0.9-0.27 0.57-0.59-0.55-0.55 3.51-8.81 5.27-10.75 0.42-0.46 1.11-0.28 1.53 0.41 0.48 0.77 0.36 0.99-0.33 0.56-0.68-0.42-1.02 0.17-0.9 1.6 0.1 1.25-0.26 2.43-0.81 2.62-1.21 0.41-2.47 2.28-2.47 3.65 0 0.55 0.48 0.33 1.06-0.5 0.95-1.33 1.01-1.33 0.61 0-0.25 0.83-1.01 1.37-1.69 1.21-0.86-0.2-1.05 0.49-0.62 2.19 0.34 1.36 0.16 2.76-0.4 3.11-0.56 0.34-0.76 1.05-0.45 1.56 0.81 1.3 0.09 1.16-1.34-0.27zm7.5-8.29c0.91-1.92 1.84-3.31 2.05-3.09 0.46 0.46-2.57 6.58-3.26 6.58-0.25 0 0.29-1.57 1.21-3.49zm4.38-11.93c-0.04-1.05 0.19-1.64 0.52-1.31 0.34 0.33 0.37 1.2 0.08 1.92-0.32 0.8-0.55 0.56-0.6-0.61zm0-8c-0.04-1.05 0.19-1.64 0.52-1.31 0.34 0.33 0.37 1.2 0.08 1.92-0.32 0.8-0.55 0.56-0.6-0.61zm-14.83 52.59c0.28-1.08-0.06-1.84-0.81-1.84-0.71 0-1.51 0.83-1.77 1.84-0.28 1.07 0.05 1.83 0.81 1.83 0.71 0 1.5-0.82 1.77-1.83zm59.36-1.99c-0.27-0.45 0.62-2.02 1.98-3.5 1.37-1.47 2.06-2.68 1.52-2.68-1.09 0-5.11 4.82-5.11 6.13 0 0.48 0.48 0.87 1.06 0.87s0.83-0.37 0.55-0.82zm-77.1-17.57c0.61-0.54 0.42-0.7-0.51-0.4-1.01 0.32-2.08-0.85-3.28-3.62-1.18-2.71-1.6-3.18-1.24-1.38 0.92 4.61 2.6 8.27 3.34 7.26 0.39-0.54 1.15-1.37 1.69-1.86zm-7.07-13.36c-0.41-1.87-0.3-2.32 0.34-1.42 0.77 1.09 1.05 1.06 1.52-0.18 0.43-1.1 0.04-1.41-1.41-1.13-1.64 0.32-1.88-0.01-1.38-1.82 0.49-1.73 0.4-1.88-0.43-0.7-0.87 1.24-1.05 1.25-1.06 0.08-0.01-0.78-0.24-1.19-0.51-0.92-0.5 0.49 2.49 8.84 3.16 8.84 0.2 0 0.1-1.24-0.23-2.75zm-53.908-13.64c2.008 1.32 2.427 1.29 3.995-0.28 3.562-3.56 4.717-8.15 3.418-13.56-1.453-6.06-1.73-18.98-0.596-27.77 0.774-5.996 0.718-6.345-0.723-4.5-0.872 1.12-1.576 1.45-1.593 0.75-0.074-2.894-2.207-0.847-5.109 4.9-5.006 9.92-8.147 20.58-8.676 29.45-0.447 7.51-0.312 8.26 1.837 10.26 2.02 1.89 2.506 1.98 3.761 0.72 1.255-1.25 1.731-1.25 3.686 0.03zm1.548-6.03c-0.044-1.05 0.193-1.64 0.525-1.31s0.368 1.2 0.079 1.92c-0.319 0.8-0.556 0.56-0.604-0.61zm-6-2c-0.044-1.05 0.193-1.64 0.525-1.31s0.368 1.2 0.079 1.92c-0.319 0.8-0.556 0.56-0.604-0.61zm-0.456-4.12c-0.343-0.89-0.567-3.5-0.498-5.79 0.119-4 0.157-3.94 0.92 1.33 0.821 5.66 0.667 7.3-0.422 4.46zm8.118-3.79c-0.408-1.01-0.728-2.81-0.711-4 0.028-1.98 0.122-2.01 1.066-0.39 0.569 0.98 0.889 2.78 0.711 4-0.293 2-0.399 2.04-1.066 0.39zm-7.247-6.68c-0.873-1.41 0.45-5.14 1.578-4.45 0.51 0.32 0.928 1.03 0.928 1.58s-0.521 0.68-1.158 0.28c-0.793-0.49-0.98-0.03-0.593 1.44 0.601 2.3 0.269 2.81-0.755 1.15zm7.664-2.99c0-1.37 0.227-1.94 0.504-1.25s0.277 1.81 0 2.5-0.504 0.13-0.504-1.25zm-5.492-2.67c-0.366-0.36-0.653-1.38-0.636-2.25 0.025-1.3 0.22-1.25 1.092 0.25 1.077 1.85 0.764 3.22-0.456 2zm0.821-4.35c-0.508-0.82-0.397-1.51 0.28-1.74 0.616-0.2 0.854-1.13 0.529-2.05-0.439-1.26-0.288-1.41 0.587-0.61 0.776 0.71 0.883 1.88 0.312 3.42-0.662 1.79-1.064 2.02-1.708 0.98zm3.077-6.27c0.376-0.99 0.935-1.54 1.243-1.24 0.308 0.31 0 1.12-0.683 1.8-0.988 0.98-1.103 0.86-0.56-0.56zm-33.709 38.4c1.11-0.7 1.02-1.37-0.5-3.7-1.02-1.56-1.299-2.49-0.619-2.07 0.903 0.56 1.14-0.07 0.879-2.31-0.197-1.69 0.034-3.31 0.514-3.61 0.479-0.3 0.864-1.07 0.855-1.73-0.01-0.8-0.299-0.74-0.875 0.17-0.609 0.96-1.061 1.03-1.554 0.23-0.476-0.77-1.54-0.46-3.375 0.98-4.784 3.75-7.244 10.72-3.348 9.48 1.135-0.36 2.526 0.19 3.655 1.44 2.036 2.25 2.432 2.35 4.368 1.12zm-5.186-6.84c-0.306-0.49 0.266-2.15 1.27-3.68s2.043-2.4 2.309-1.93c0.664 1.16-2.888 6.73-3.579 5.61zm22.218 1.56c1.374-1.71 2.977-5.81 3.774-9.65 1.783-8.59 4.628-16.83 8.38-24.26 1.643-3.26 2.701-5.92 2.351-5.92-0.351 0-0.11-0.635 0.534-1.411 1.875-2.259-0.429-2.754-2.889-0.621-2.598 2.252-1.854 4.892 0.802 2.852 1.2-0.93 1.138-0.673-0.223 0.92-1.036 1.22-2.35 1.92-2.92 1.57-0.641-0.39-0.785 0.02-0.378 1.08 0.366 0.95 0.248 1.46-0.264 1.14-1.23-0.76-7.238 8.43-10.621 16.25-1.494 3.45-2.911 6.08-3.149 5.84-0.237-0.24 0.276-1.8 1.142-3.48 0.866-1.67 1.535-3.63 1.488-4.34-0.047-0.72-1.639 1.85-3.536 5.7-1.898 3.85-3.16 5.88-2.805 4.5 1.097-4.25 7.585-15.64 11.091-19.47 1.835-2 3.336-4.14 3.336-4.76 0-0.61 0.747-1.94 1.66-2.95 0.914-1.01 1.441-2.05 1.172-2.32-0.567-0.568-10.669 9.84-16.148 16.64-4.409 5.46-7.943 15.14-7.499 20.53 0.263 3.2 0.685 3.83 2.557 3.86 1.234 0.01 2.981 0.76 3.883 1.67 2.049 2.05 4.833 0.91 8.262-3.37zm34.009 1.64c3.823 1.21 7.683-8.98 5.233-13.85-1.95-3.88-4.959-14.02-6.747-22.71l-1.767-8.591-2.831 1.068c-4.078 1.54-5.324 6.653-5.094 20.903 0.272 16.84 3.75 27.08 8.001 23.55 0.667-0.55 2.109-0.72 3.205-0.37zm0.262-10.47c0-1.37 0.227-1.94 0.504-1.25s0.277 1.81 0 2.5-0.504 0.13-0.504-1.25zm-6.158-0.33c0-0.92-0.498-1.67-1.107-1.67s-0.848-0.67-0.532-1.5c0.317-0.82 0.14-1.5-0.393-1.5-0.532 0-0.968-1.12-0.968-2.5 0-1.37 0.343-2.5 0.763-2.5 0.901 0 3.449 10.12 2.729 10.84-0.271 0.27-0.492-0.26-0.492-1.17zm3.079-4.09c-0.044-1.05 0.193-1.64 0.525-1.31s0.368 1.2 0.079 1.92c-0.319 0.8-0.556 0.56-0.604-0.61zm2 0c-0.044-1.05 0.193-1.64 0.525-1.31s0.368 1.2 0.079 1.92c-0.319 0.8-0.556 0.56-0.604-0.61zm-7.793-18.08c0.007-2.75 0.202-3.76 0.431-2.24 0.23 1.52 0.224 3.77-0.013 5-0.238 1.23-0.426-0.01-0.418-2.76zm-51.802 27.65c-0.881-0.88-2.481 1.18-2.449 3.16 0.034 2.11 0.085 2.1 1.418-0.31 0.761-1.37 1.225-2.66 1.031-2.85zm85.305-1.48c-1.34-4.37-3.03-5-1.79-0.67 1.14 3.96 0.37 3.83-1.41-0.25-0.79-1.79-1.46-2.64-1.51-1.89-0.04 0.75 0.91 3.13 2.12 5.28 2.66 4.73 4.32 3.15 2.59-2.47zm-95.026 3.43c0.955-0.5 4.662-2.3 8.237-4 7.345-3.49 12.165-7.65 16.404-14.15 1.597-2.45 6.772-8.42 11.5-13.27 4.727-4.85 8.582-9.127 8.566-9.5-0.016-0.374 0.486-0.561 1.117-0.417 0.63 0.145 1.711-0.417 2.402-1.25 1.008-1.215 1.006-1.814-0.01-3.038-1.13-1.361-1.446-1.363-2.936-0.014-1.066 0.965-2.018 1.165-2.629 0.553-1.111-1.111-20.189 5.372-24.914 8.466-11.856 7.76-23.834 20.08-26.638 27.4-1.222 3.19-0.171 6.12 2.197 6.12 1.058 0 2.486 0.9 3.173 2 1.447 2.32 1.283 2.27 3.531 1.1zm-1.763-7.79c0-0.32 1.575-2.76 3.5-5.44s3.5-5.2 3.5-5.59c0-1.48 9.315-10.1 10.445-9.66 0.649 0.25 2.041-0.58 3.091-1.83 1.051-1.26 1.27-1.73 0.487-1.04s-1.879 1.25-2.435 1.25c-1.015 0 5.397-5.88 6.495-5.96 0.321-0.02 0.583 0.64 0.583 1.46 0 0.83-0.401 1.5-0.892 1.5s-0.649 0.39-0.352 0.87c0.557 0.91-15.129 15.63-16.646 15.63-0.952 0-2.772 2.6-2.412 3.45 0.128 0.3-1.026 1.76-2.566 3.24-1.539 1.47-2.798 2.43-2.798 2.12zm12.459-14.38c-0.263-0.42 0.72-1.71 2.184-2.86 1.464-1.16 2.452-2.31 2.194-2.57-0.257-0.25-2.217 1.33-4.355 3.52-2.139 2.19-3.517 3.98-3.063 3.98s0.222 0.79-0.517 1.75c-0.738 0.96-0.132 0.67 1.347-0.65 1.479-1.31 2.474-2.74 2.21-3.17zm11.207-10.39c0-0.8-0.382-1.22-0.849-0.93-0.468 0.29-0.591 0.95-0.275 1.46 0.809 1.31 1.124 1.16 1.124-0.53zm4.436-2.91c1.396-1.54 3.173-2.27 6.207-2.553 0.445-0.043 0.555-0.487 0.245-0.989-0.31-0.501 1.52-2.076 4.067-3.5 5.19-2.9 5.379-2.959 5.379-1.66 0 1.129-12.154 8.662-13.355 8.272-0.471-0.15-1.596 0.28-2.5 0.96-1.514 1.13-1.518 1.09-0.043-0.53zm70.477 30.78c-0.79-2.15-1.47-3.41-1.51-2.81-0.1 1.53 2.07 7.59 2.55 7.11 0.21-0.21-0.26-2.15-1.04-4.3zm-7.56-1.96c0.49-1.28 1.89-2.44 3.17-2.62 3.47-0.5 3.27-3.12-0.41-5.33-1.8-1.08-3.65-1.84-4.1-1.7-0.46 0.14-0.5-0.29-0.09-0.95 0.51-0.82 0.2-0.98-0.98-0.53-1.37 0.53-2.27-0.52-4.33-5.02-1.43-3.13-4.56-7.59-6.94-9.91-3.118-3.02-4.154-4.71-3.671-5.967 0.494-1.289 0.322-1.535-0.653-0.932-0.878 0.542-1.085 0.432-0.616-0.329 0.39-0.63 0.297-1.882-0.207-2.782-0.625-1.118-1.136-1.279-1.613-0.508-0.383 0.62-0.283 1.128 0.223 1.128s0.713 1.086 0.459 2.413c-1.149 6.007 6.348 29.657 10.698 33.717 3.41 3.2 7.71 2.87 9.06-0.68zm-5.86-5c-0.64-1.41-1.6-2.3-2.13-1.97-0.52 0.32-1.87-1.21-2.99-3.4-2.09-4.11-2.77-6.76-1.04-4.08 0.86 1.33 0.97 1.33 1 0 0.01-0.82 1.62 1.36 3.57 4.86 1.94 3.5 3.36 6.54 3.15 6.76-0.22 0.21-0.92-0.76-1.56-2.17zm-3.54-6.11c-0.85-1.56-1.56-2.52-1.58-2.14-0.07 1.19 2.26 5.83 2.7 5.39 0.23-0.23-0.27-1.69-1.12-3.25zm6.98 3.83c-0.28-0.46 0.12-0.84 0.9-0.84s1.18 0.38 0.9 0.84c-0.29 0.46-0.69 0.83-0.9 0.83s-0.61-0.37-0.9-0.83zm-13.03-16.46c0.37-0.99 0.93-1.54 1.24-1.24 0.31 0.31 0 1.12-0.69 1.8-0.98 0.98-1.098 0.86-0.55-0.56zm31.61 13.41c1.28-1.58 3.33-3.39 4.57-4.03 3.21-1.65 2.88-5.79-0.89-11.5-5.08-7.651-18.84-16.552-27.86-18.003-1.92-0.31-2.94-0.306-2.25 0.008 2.17 0.991 1.36 2.469-1.03 1.872-1.61-0.406-2.94 0.144-4.59 1.894l-2.315 2.466 2.795 4.836c11.97 20.757 25.29 30.237 31.57 22.457zm-15.26-13.86c-3.53-3.66-5.74-6.15-4.92-5.54 0.83 0.61 1.95 1.23 2.5 1.39 1.88 0.51 10.6 9.71 9.72 10.25-0.48 0.3-3.76-2.45-7.3-6.1zm0.08-1.64c0-0.21-0.79-0.99-1.75-1.75-1.59-1.24-1.62-1.21-0.38 0.38 1.31 1.67 2.13 2.2 2.13 1.37zm6.5-4.19c-2.75-2.467-7.36-5.917-10.25-7.668-4.94-3-6.52-4.762-4.25-4.762 0.55 0 1 0.477 1 1.059 0 0.583 0.45 0.779 1.01 0.437 0.55-0.343 1.27 0.078 1.6 0.935s0.92 1.361 1.31 1.122c1.04-0.648 10 6.456 12.86 10.197 1.36 1.79 2.31 3.23 2.1 3.21-0.21-0.03-2.63-2.07-5.38-4.53zm-19-9.966c-1.65-0.756-2.3-1.394-1.44-1.419s2.43 0.616 3.5 1.423c2.37 1.793 1.86 1.792-2.06-0.004zm68.79 29.536c0.29-1.1 0.12-2.25-0.38-2.56s-0.91 0.59-0.91 2c0 3.07 0.57 3.31 1.29 0.56zm-154.17-3.06c4.894-1.28 9.526-4.92 7.715-6.06-1.759-1.12-3.094-1.11-2.4 0.01 0.604 0.98-4.331 2.55-5.219 1.66-0.894-0.9 0.033-1.38 8.354-4.37 4.362-1.57 7.831-3.34 7.71-3.93s1.116-1.54 2.75-2.11 2.971-1.26 2.971-1.54-1.722 0.1-3.827 0.84c-2.104 0.74-4.977 1.13-6.383 0.86-1.417-0.27-2.887 0.05-3.298 0.71-0.536 0.87-0.08 1.02 1.633 0.53 1.92-0.54 2.088-0.45 0.875 0.48-1.193 0.91-0.887 1.02 1.5 0.53 2.232-0.45 2.616-0.35 1.5 0.42-0.825 0.56-2.85 0.78-4.5 0.47-1.991-0.37-2.551-0.25-1.666 0.36 1.068 0.74 0.989 1.05-0.394 1.58-0.949 0.37-1.962 0.43-2.25 0.14-0.288-0.28 0.114-0.53 0.893-0.54 1.167-0.01 1.152-0.18-0.083-0.98-0.825-0.53-2.175-0.97-3-0.97-1.218 0-1.246 0.16-0.149 0.86 0.955 0.6-0.05 1.33-3.428 2.48-5.87 2-5.939 2-3.985 0.05 0.869-0.87 1.297-2.04 0.95-2.6-0.388-0.63 0.157-0.6 1.425 0.08 2.527 1.35 5.44 1.55 3.353 0.22-1.854-1.17 1.399-2.39 4.1-1.54 1.314 0.42 1.753 0.26 1.3-0.47-0.391-0.63-3.572-1.11-7.413-1.11-6.018 0-7.094 0.31-10.191 2.97-2.0867 1.79-3.0649 3.28-2.4622 3.75 2.0504 1.6 3.5736 5.47 2.9383 7.47-0.6094 1.92-0.3788 2.02 3.2029 1.38 2.122-0.38 5.488-1.12 7.478-1.63zm93.88 1.25c0-0.44-0.68-1.68-1.52-2.75-1.4-1.8-1.43-1.74-0.33 0.81 1.17 2.75 1.85 3.46 1.85 1.94zm-82.499-9.19c0.782-1.27-0.542-1.27-2.5 0-1.293 0.84-1.267 0.97 0.191 0.98 0.93 0.01 1.969-0.43 2.309-0.98zm117.36-6.75c1.43-1.51 2.49-3.07 2.38-3.47-0.12-0.396 0.68-1.199 1.77-1.785 2.88-1.543 2.46-3.538-1.42-6.63-3.71-2.959-6.42-3.752-8.09-2.366-1.93 1.601-6.69 3.119-5.93 1.891 0.47-0.755-0.05-0.872-1.63-0.371-1.27 0.404-3.69 0.853-5.38 0.998-1.68 0.145-3.15 0.313-3.26 0.373-0.11 0.061 0.92 1.328 2.3 2.816 2.26 2.434 2.73 2.571 4.71 1.358 2.13-1.308 2.14-1.29 0.44 0.622-1.67 1.884-1.65 2.059 0.51 4.084 2.13 2 8.19 5.11 10.13 5.19 0.48 0.02 2.05-1.2 3.47-2.71zm-6.72-3.14c-0.74-0.473-0.97-1.094-0.5-1.38 0.48-0.286 1.44 0.108 2.15 0.875 1.43 1.545 0.46 1.845-1.65 0.505zm-4.14-1.055c0-0.763-0.81-0.953-2.25-0.53l-2.25 0.66 2.25-1.645c1.48-1.09 2.77-1.349 3.81-0.768 1.42 0.796 1.42 0.999 0 2.176-1.14 0.953-1.56 0.981-1.56 0.107zm-6-3.996c0-0.582 0.45-1.059 1-1.059s1 0.199 1 0.441c0 0.243-0.45 0.719-1 1.059s-1 0.142-1-0.441zm15-2.285c0-0.49-0.41-0.64-0.91-0.331s-1.93 0.183-3.17-0.278l-2.27-0.839 2.18-0.57c1.41-0.369 1.94-0.191 1.51 0.507-0.41 0.668-0.07 0.849 0.9 0.476 0.86-0.331 2.34-0.032 3.3 0.663 1.54 1.13 1.55 1.265 0.09 1.265-0.89 0-1.63-0.402-1.63-0.893zm-113.5 8.106c5.566-0.862 40.5-11.461 40.5-12.288 0-0.114-2.249-0.207-4.998-0.207-2.842 0-4.46 0.341-3.75 0.792 1.912 1.214-0.003 0.975-5.118-0.64-6.187-1.953-18.905-4.041-22.634-3.717-1.877 0.164-2.536-0.054-1.76-0.582 0.856-0.582 0.18-1.227-2.184-2.081-6.248-2.26-22.462 2.025-28.806 7.612-1.903 1.676-2.3557 5.739-0.7502 6.731 0.55 0.34 1 1.689 1 2.999 0 2.011 0.5792 2.441 3.75 2.781 5.0952 0.55 16.269-0.09 24.75-1.4zm-26.769-2.536c0.6771-0.274 2.0271-0.29 3-0.037 0.973 0.254 0.4191 0.478-1.2309 0.498s-2.4461-0.187-1.7691-0.461zm9.2693-0.344c-1.143-0.738-0.785-0.949 1.5-0.885 1.65 0.046 4.125 0.445 5.5 0.885 2.169 0.695 1.97 0.812-1.5 0.885-2.2 0.046-4.675-0.352-5.5-0.885zm8-1c-2.453-0.786-2.444-0.802 0.5-0.901 3.651-0.122 15.14-2.404 26.185-5.199 6.114-1.548 8.644-1.802 10-1.003 1.457 0.858 1.125 0.97-1.685 0.567-2.449-0.351-2.916-0.247-1.554 0.349 1.838 0.803 1.815 0.885-0.398 1.464-1.29 0.338-3.741 0.375-5.447 0.084-2.397-0.409-2.761-0.284-1.601 0.553 1.148 0.83 0.68 0.962-2 0.566-2.378-0.352-2.887-0.249-1.588 0.321 1.439 0.632 0.038 1.202-5.679 2.308-4.175 0.809-7.372 1.115-7.103 0.681 0.268-0.435-0.551-0.783-1.821-0.775-1.858 0.013-2.016 0.205-0.809 0.985 1.142 0.738 0.785 0.949-1.5 0.885-1.65-0.046-4.125-0.445-5.5-0.885zm13.187-1.683c-0.722-0.289-1.584-0.253-1.916 0.079-0.333 0.332 0.258 0.569 1.312 0.525 1.165-0.048 1.402-0.285 0.604-0.604zm6-1c-0.722-0.289-1.584-0.253-1.916 0.079-0.333 0.332 0.258 0.569 1.312 0.525 1.165-0.048 1.402-0.285 0.604-0.604zm12-3c-0.722-0.289-1.584-0.253-1.916 0.079-0.333 0.332 0.258 0.569 1.312 0.525 1.165-0.048 1.402-0.285 0.604-0.604zm-28.187-0.317c0.825-0.533 2.625-0.931 4-0.885l2.5 0.084-2.5 0.801c-1.375 0.44-3.175 0.839-4 0.885-1.334 0.075-1.334-0.023 0-0.885zm-10-1.976c0-0.628 0.45-0.864 1-0.524s1 0.093 1-0.548 0.675-0.907 1.5-0.59c0.825 0.316 1.5 0.215 1.5-0.226 0-1.375 6.895-2.991 9.636-2.258 2.199 0.588 1.447 0.983-4.763 2.505-4.055 0.993-7.936 2.026-8.623 2.295-0.688 0.269-1.25-0.025-1.25-0.654zm20.75-0.686c0.687-0.278 1.812-0.278 2.5 0 0.687 0.277 0.125 0.504-1.25 0.504s-1.938-0.227-1.25-0.504zm47.25 3.103c0-0.242-0.45-0.441-1-0.441s-1 0.477-1 1.059c0 0.583 0.45 0.781 1 0.441s1-0.816 1-1.059zm9.25-2.126c-1.803-0.695-1.537-2.093 0.5-2.626 1.386-0.362 1.306-0.481-0.384-0.573-1.277-0.069-2.322 0.605-2.603 1.682-0.338 1.292 0.122 1.827 1.633 1.898 1.157 0.055 1.541-0.116 0.854-0.381zm43.119-1.281c13.88-3.55 20.77-8.2 21.26-14.341 0.15-2.014 0.79-4.608 1.41-5.763 1.68-3.142 0.53-3.364-2.56-0.495-3.92 3.633-8.3 4.54-22.48 4.655-10.97 0.09-25.92 2.227-20.5 2.933 1.1 0.144 0.2 0.535-2 0.869-2.62 0.398-4 1.126-4 2.108 0 0.825-0.45 1.874-1 2.331-0.56 0.462 0.12 0.589 1.53 0.286 1.39-0.3 3.64-0.226 5 0.163 2.1 0.602 1.81 0.782-1.95 1.214-2.43 0.278-4.58 0.993-4.78 1.589-0.48 1.463 13.18 6.177 18.29 6.31 2.25 0.059 7.55-0.778 11.78-1.859zm-16.1-7.638c0.33-0.332 1.2-0.368 1.92-0.079 0.8 0.319 0.56 0.556-0.61 0.604-1.05 0.044-1.64-0.193-1.31-0.525zm8 0c0.33-0.332 1.2-0.368 1.92-0.079 0.8 0.319 0.56 0.556-0.61 0.604-1.05 0.044-1.64-0.193-1.31-0.525zm6.48-1.058c0.69-0.278 1.81-0.278 2.5 0 0.69 0.277 0.13 0.504-1.25 0.504-1.37 0-1.94-0.227-1.25-0.504zm-47.96 5.78c2.705 1 2.968 2.257 0.295 1.409-1.054-0.335-2.189-0.166-2.523 0.374-0.352 0.57 0.558 0.891 2.166 0.766 2.101-0.165 2.78-0.743 2.803-2.389 0.041-2.966 1.123-3.81 2.946-2.298 1.271 1.055 1.543 0.954 1.642-0.607 0.065-1.03 0.054-2.244-0.025-2.697-0.078-0.454 0.291-0.557 0.821-0.229 0.529 0.327 1.474-0.202 2.1-1.176 1.04-1.62 1.083-1.603 0.508 0.199-0.345 1.083-0.308 1.649 0.083 1.258s1.326-0.2 2.077 0.423c0.747 0.624 1.657 0.845 2.007 0.492 0.35-0.354 0.09-0.643-0.58-0.643-0.68 0-0.91-0.519-0.51-1.154 0.44-0.716 0.27-0.884-0.44-0.441-0.764 0.469-1.159-0.174-1.159-1.877 0-2.885-2.735-4.575-4.025-2.488-0.637 1.031-1.143 1.066-2.241 0.154-0.78-0.647-1.714-0.88-2.076-0.519-0.865 0.866-0.719-1.66 0.237-4.102 0.67-1.71 0.827-1.74 1.392-0.267 0.379 0.988 1.26 1.421 2.175 1.07 1.862-0.714 2.039-7.782 0.513-20.402-1.463-12.096-8.682-37.472-11.671-41.024l-2.405-2.8589-3.48 1.9545c-1.914 1.0749-4.336 1.9545-5.382 1.9545-2.67 0-3.299 2.8979-2.558 11.794 1.193 14.344 7.056 36.245 12.742 47.599l2.952 5.892 1.907-2.892c1.735-2.632 1.907-2.698 1.913-0.725 0.004 1.193 0.274 2.993 0.601 4 0.483 1.488 0.399 1.556-0.446 0.36-0.898-1.27-1.131-1.236-1.701 0.25-0.364 0.947-1.465 1.722-2.447 1.722-2.099 0-3.409 2.629-1.805 3.621 0.61 0.376 1.715-0.145 2.456-1.159 0.742-1.014 1.349-1.341 1.349-0.726 0 0.616-1.037 1.939-2.303 2.941-1.267 1.003-2.618 2.723-3.002 3.823-0.669 1.915-0.623 1.911 1.092-0.1 1.355-1.589 2.329-1.901 4.002-1.282zm9.211-10.059c0-0.582 0.45-1.059 1-1.059s1 0.199 1 0.441c0 0.243-0.45 0.719-1 1.059s-1 0.142-1-0.441zm-10.277-4.612c-0.338-1.071-1.98-5.968-3.649-10.883-1.67-4.914-2.866-9.105-2.659-9.313 0.208-0.207 1.829 3.978 3.602 9.3 2.21 6.633 3.496 9.248 4.088 8.313 1.048-1.653 1.043-0.102-0.008 2.583-0.754 1.928-0.767 1.928-1.374 0zm0.356-5.115c-0.044-0.643-0.338-1.993-0.655-3-0.547-1.741-0.519-1.744 0.571-0.044 0.63 0.983 0.925 2.333 0.654 3-0.354 0.875-0.513 0.887-0.57 0.044zm4-0.749c-0.044-1.054 0.193-1.644 0.525-1.312s0.368 1.195 0.079 1.917c-0.319 0.797-0.556 0.56-0.604-0.605zm-1.377-7.996c-0.39-2.703-0.482-5.14-0.205-5.417 0.276-0.277 0.534 0.584 0.573 1.913 0.065 2.244 0.132 2.274 0.93 0.417 0.859-2 0.859-2 0.811 0-0.026 1.1-0.352 3.35-0.725 5-0.629 2.79-0.726 2.655-1.384-1.913zm-2.539-12.553c-0.828-4.696-0.838-6.742-0.038-7.496 0.791-0.747 0.898-0.372 0.38 1.337-0.534 1.764-0.399 2.177 0.526 1.606 0.952-0.589 1.087 0.147 0.57 3.125-0.484 2.793-0.387 3.47 0.346 2.394 0.909-1.333 1.016-1.333 0.967 0-0.03 0.825-0.406 2.399-0.834 3.497-0.586 1.5-1.063 0.39-1.917-4.463zm-8.084 3.549c-0.044-1.054 0.193-1.644 0.525-1.312s0.368 1.195 0.079 1.917c-0.319 0.797-0.556 0.56-0.604-0.605zm-1-4c-0.044-1.054 0.193-1.644 0.525-1.312s0.368 1.195 0.079 1.917c-0.319 0.797-0.556 0.56-0.604-0.605zm-0.827-6.083c-0.011-2.2 0.185-3.218 0.435-2.262s0.259 2.756 0.02 4-0.444 0.462-0.455-1.738zm7.763-2.691c-0.008-0.93 0.435-1.969 0.985-2.309 1.265-0.782 1.265 0.542 0 2.5-0.836 1.293-0.972 1.266-0.985-0.191zm-1.015-3.527c0-0.615-0.313-1.943-0.694-2.95-0.671-1.77-0.632-1.77 1.135-0.018 1.366 1.354 1.542 2.103 0.694 2.95-0.826 0.827-1.135 0.832-1.135 0.018zm-7.784 53.403c1.16-1.824 0.938-2.507-0.966-2.98-0.963-0.24-0.414-0.262 1.219-0.051 3.633 0.47 3.326 0.185-7.816-7.25-15.953-10.645-19.776-12.527-32.638-16.071-18.212-5.018-23.556-5.127-24.647-0.503-0.3471 1.468-1.5357 3.667-2.6417 4.886l-2.0111 2.216 3.3923 3.173c4.3825 4.099 22.274 12.542 31.892 15.05 13.911 3.627 32.359 4.452 34.217 1.53zm-12.216-2.685c-1.959-0.627-2.067-0.797-0.5-0.782 1.1 0.01 3.35 0.362 5 0.782 2.694 0.686 2.745 0.765 0.5 0.782-1.375 0.01-3.625-0.342-5-0.782zm-7.25-1.662c0.687-0.278 1.812-0.278 2.5 0 0.687 0.277 0.125 0.504-1.25 0.504s-1.938-0.227-1.25-0.504zm10.981 0.006c0.677-0.274 2.027-0.29 3-0.037 0.973 0.254 0.419 0.478-1.231 0.498s-2.446-0.187-1.769-0.461zm-15.46-0.948c0.332-0.332 1.194-0.368 1.916-0.079 0.798 0.319 0.561 0.556-0.604 0.604-1.054 0.044-1.645-0.193-1.312-0.525zm10.479-0.058c0.687-0.278 1.812-0.278 2.5 0 0.687 0.277 0.125 0.504-1.25 0.504s-1.938-0.227-1.25-0.504zm-13.75-1.292c0.825-0.559 2.362-1.022 3.416-1.031 2.559-0.02 1.761 0.552-1.916 1.375-2.191 0.49-2.596 0.397-1.5-0.344zm7.731 0.298c0.677-0.274 2.027-0.29 3-0.037 0.973 0.254 0.419 0.478-1.231 0.498s-2.446-0.187-1.769-0.461zm7.54-0.948c0.332-0.332 1.194-0.368 1.916-0.079 0.798 0.319 0.561 0.556-0.604 0.604-1.054 0.044-1.645-0.193-1.312-0.525zm-18.521-1.058c0.687-0.278 1.812-0.278 2.5 0 0.687 0.277 0.125 0.504-1.25 0.504s-1.938-0.227-1.25-0.504zm14.521 0.058c0.332-0.332 1.194-0.368 1.916-0.079 0.798 0.319 0.561 0.556-0.604 0.604-1.054 0.044-1.645-0.193-1.312-0.525zm-20.54-1.052c0.677-0.274 2.027-0.29 3-0.037 0.973 0.254 0.419 0.478-1.231 0.498s-2.446-0.187-1.769-0.461zm-12.731-3.844c-1.375-0.786-2.05-1.429-1.5-1.429s2.125 0.643 3.5 1.429 2.05 1.429 1.5 1.429-2.125-0.643-3.5-1.429zm18.271-2.104c0.332-0.332 1.194-0.368 1.916-0.079 0.798 0.319 0.561 0.556-0.604 0.604-1.054 0.044-1.645-0.193-1.312-0.525zm-5.188-0.755c0.229-0.198 1.767-0.662 3.417-1.031 2.191-0.49 2.595-0.397 1.5 0.344-1.351 0.914-5.92 1.552-4.917 0.687zm-0.333-2.303c0.687-0.278 1.812-0.278 2.5 0 0.687 0.277 0.125 0.504-1.25 0.504s-1.938-0.227-1.25-0.504zm-5-1c0.687-0.278 1.812-0.278 2.5 0 0.687 0.277 0.125 0.504-1.25 0.504s-1.938-0.227-1.25-0.504zm-5.479-0.942c0.332-0.332 1.194-0.368 1.916-0.079 0.798 0.319 0.561 0.556-0.604 0.604-1.054 0.044-1.645-0.193-1.312-0.525zm-4.521-1.058c0.687-0.278 1.812-0.278 2.5 0 0.687 0.277 0.125 0.504-1.25 0.504s-1.938-0.227-1.25-0.504zm134.31 20.142c2.37-0.835 5.74-2.615 7.5-3.954 2.7-2.062 3.17-3.048 3.08-6.452-0.09-3.565-0.42-4.087-2.94-4.641-1.56-0.343-3.11-0.355-3.44-0.028-0.32 0.327 0.18 0.595 1.13 0.595s1.44 0.468 1.09 1.041c-0.36 0.572-1.62 0.768-2.81 0.434-1.54-0.43-1.77-0.332-0.81 0.339 1.15 0.797 1.15 1.042 0 1.571-0.75 0.345-0.01 0.43 1.64 0.189l3-0.438-2.75 1.125c-1.51 0.619-2.75 1.713-2.75 2.432 0 1.583 0.49 1.619 3.32 0.251 2.06-0.997 2.05-0.942-0.17 0.994-1.3 1.128-2.76 1.802-3.25 1.498-0.5-0.305-0.9 0.139-0.9 0.986s-1.11 1.818-2.46 2.157c-2.52 0.633-5.61 3.421-3.79 3.421 0.55 0 2.94-0.684 5.31-1.52zm-56.85-0.589c-0.39-0.348-1.947-0.924-3.459-1.281-1.954-0.46-2.75-0.26-2.75 0.692 0 0.873 1.206 1.319 3.462 1.281 1.907-0.033 3.137-0.344 2.747-0.692zm-20.219-6.127c1.733-2.14 1.735-2.385 0.052-5.75-0.967-1.933-3.234-7.899-5.038-13.258-3.101-9.215-3.643-10.085-9.967-16-9.419-8.81-11.571-10.535-17.925-14.366-6.707-4.045-8.346-4.189-10.112-0.89-0.736 1.375-2.162 2.5-3.169 2.5-2.125 0-2.445 2.965-0.681 6.316 8.372 15.906 25.278 33.408 40.35 41.774 4.067 2.258 4.412 2.24 6.49-0.326zm-9.447-4.514c-10.641-8.549-22.573-20.605-28.109-28.402-6.016-8.472-7.506-11.805-1.867-4.175 1.962 2.655 11.041 12.14 20.176 21.077 9.135 8.938 16.408 16.25 16.161 16.25s-3.109-2.137-6.361-4.75zm-3.543-4.538c0-0.159-2.138-1.993-4.75-4.077l-4.75-3.789 4.378 4.077c4.03 3.752 5.122 4.56 5.122 3.789zm12.361 5.788c-0.316-0.825-1.035-1.5-1.596-1.5-1.15 0-20.205-18.018-23.215-21.952l-1.95-2.548 2.2 1.905c1.21 1.048 2.2 1.505 2.2 1.017 0-1.097 21.762 20.407 23.102 22.828 0.532 0.963 0.713 1.75 0.402 1.75-0.312 0-0.826-0.675-1.143-1.5zm-2.361-2.769c0-0.148-4.598-4.76-10.218-10.25-5.62-5.489-9.891-9.531-9.491-8.981 0.905 1.244 19.116 19.489 19.459 19.495 0.137 0.003 0.25-0.116 0.25-0.264zm-15-23.924c-4.125-3.911-10.38-9.292-13.899-11.958-7.094-5.375-7.288-5.741-1.539-2.909 3.972 1.957 16.015 11.961 15.965 13.262-0.015 0.386 1.752 2.523 3.926 4.75 6.246 6.397 3.763 4.643-4.453-3.145zm56.369 15.232c13.05-12.301 23.63-32.954 23.63-46.113 0-2.32-0.6-3.204-2.73-4.013-1.5-0.571-3.06-1.572-3.47-2.2255-0.49-0.7829-3.83 1.8785-9.81 7.8125-9.71 9.643-12.78 14.681-15.41 25.285-0.86 3.457-3.46 10.882-5.8 16.5-2.33 5.618-4.02 10.43-3.76 10.693 0.9 0.895 2.97 0.847 3.55-0.083 0.31-0.51 1-0.664 1.52-0.342s0.63 1.093 0.25 1.713c-1.25 2.018 6.02-3.552 12.03-9.227zm-11.78 7.108c-0.69-1.12 3.96-5.467 6.18-5.778 1.64-0.229 1.64-0.172 0 1.043-0.96 0.707-1.56 1.466-1.35 1.687s-0.67 1.189-1.96 2.153c-1.29 0.963-2.58 1.366-2.87 0.895zm-3.59-2.402c0-0.275 0.68-1.06 1.5-1.745 0.83-0.685 1.5-1.02 1.5-0.745s-0.67 1.06-1.5 1.745c-0.82 0.685-1.5 1.02-1.5 0.745zm14-7c0-0.275 0.68-1.06 1.5-1.745 0.83-0.685 1.5-1.02 1.5-0.745s-0.67 1.06-1.5 1.745c-0.82 0.685-1.5 1.02-1.5 0.745zm-7.43-4.038c0.37-0.986 0.93-1.541 1.24-1.233 0.31 0.307 0 1.114-0.69 1.793-0.98 0.98-1.1 0.865-0.55-0.56zm10.93-7.381c0.55-0.454 1-1.501 1-2.326s0.62-1.369 1.37-1.209c0.82 0.172 1.16-0.271 0.85-1.083-0.29-0.756 0.08-1.375 0.82-1.375 1.01 0 1.1 0.474 0.36 1.862-0.55 1.023-1.46 1.578-2.02 1.233-0.57-0.355-0.88 0.132-0.7 1.118 0.18 0.961-0.35 1.94-1.18 2.176-0.89 0.256-1.09 0.096-0.5-0.396zm3.5-7.934c0-0.827 1.94-1.295 2.39-0.575 0.29 0.467-0.13 0.85-0.93 0.85s-1.46-0.124-1.46-0.275zm-8-1.775c0-1.073 2.98-6.617 3.55-6.617 0.28 0-0.24 1.463-1.15 3.25-1.86 3.65-2.4 4.411-2.4 3.367zm10.59-0.466c-0.39-0.633-0.23-1.151 0.35-1.151s1.01-0.337 0.94-0.75c-0.28-1.787 0.25-3.087 2.12-5.25 2.61-3.014 2.47-1.568-0.39 3.901-1.41 2.69-2.58 3.954-3.02 3.25zm-2.51 26.292c1.97-1.24 7.59-5.966 12.49-10.503 8.83-8.188 16.63-12.897 21.43-12.945 3.65-0.037 5.8-1.594 4.29-3.106-0.82-0.819-0.89-1.766-0.23-3.008 1.28-2.383-1.91-4.497-8.06-5.346-5.01-0.692-13.42 1.32-13.62 3.259-0.07 0.663-0.19 1.431-0.25 1.706-0.07 0.275-0.11 0.741-0.09 1.036 0.02 0.294-0.66 1.227-1.5 2.071-2.32 2.312-1.85 3.634 0.71 2.02 1.24-0.78 3.38-1.691 4.75-2.024 1.38-0.334 0.61 0.267-1.7 1.335-3.23 1.49-4.12 2.405-3.82 3.937 0.21 1.098-0.35 2.588-1.24 3.311-1.19 0.964-1.42 0.981-0.87 0.064 0.84-1.406 0.51-1.523-1.82-0.632-0.88 0.339-2.11 1.577-2.72 2.75-1.05 2.003-1 2.042 0.83 0.632 1.07-0.825 0.56-0.15-1.14 1.5s-3.97 4.125-5.04 5.5l-1.96 2.5 2.79-2.476c1.88-1.659 2.59-1.937 2.17-0.84-0.34 0.9-1.88 2.243-3.41 2.984s-5.54 3.905-8.92 7.03l-6.13 5.683 4.74-2.092c2.61-1.151 6.35-3.107 8.32-4.346zm16.25-21.912c0-0.779 0.63-1.1 1.5-0.766 1.06 0.405 1.26 0.183 0.68-0.75-0.54-0.872-0.43-1.085 0.32-0.623 0.62 0.385 2.04 0.214 3.15-0.381s2.02-0.85 2.02-0.566c0 0.283-1.72 1.394-3.83 2.47-2.9 1.478-3.84 1.629-3.84 0.616zm-10.08 27.213c3.71-0.134 6.75-0.551 6.75-0.927 0-0.375 0.91-0.97 2.02-1.322 1.1-0.351 1.78-1.009 1.5-1.462s0.09-1.053 0.82-1.333 1.33 0.123 1.33 0.895c0 0.773-0.4 1.405-0.89 1.405-0.5 0-0.62 0.445-0.29 0.989 0.37 0.587-0.08 0.721-1.1 0.33-1.17-0.447-1.48-0.283-0.99 0.511 1.14 1.857 8.76 1.371 12.3-0.786 1.75-1.072 3.95-3.103 4.87-4.514 1.32-2.007 1.98-2.318 3.05-1.429 1.96 1.621 5.32-0.832 8.2-5.972 2.01-3.597 2.11-4.219 0.75-4.742-0.86-0.33-1.57-1.453-1.57-2.494 0-2.514-1.89-2.418-12 0.607-4.59 1.375-9.33 2.5-10.52 2.5s-4.64 2.138-7.67 4.75c-9.57 8.264-10.81 9.252-10.81 8.621 0-0.339-0.73-0.012-1.62 0.726s-3.25 2.138-5.25 3.11l-3.63 1.769 4-0.494c2.2-0.272 7.04-0.604 10.75-0.738zm19.36-4.925c0.48-0.774 0.17-0.947-0.95-0.52-0.91 0.351-2.37 0.365-3.24 0.031-2.3-0.882 0.47-2.474 2.96-1.7 1.15 0.361 1.63 0.187 1.23-0.454-0.35-0.571-0.11-1.363 0.53-1.761 0.73-0.452 0.9-0.29 0.46 0.431-0.89 1.434-0.11 1.462 2.72 0.099 2.11-1.019 2.11-1.002 0.24 0.5-1.07 0.855-2.42 1.562-3 1.57-0.58 0.009-0.46 0.396 0.27 0.861 1.07 0.677 1.01 0.971-0.3 1.473-1.08 0.417-1.39 0.239-0.92-0.53zm-11.1-5.807c-0.37-0.588 0.08-0.722 1.1-0.331 1.26 0.483 1.5 0.304 0.9-0.666-0.55-0.887-0.43-1.085 0.35-0.6 0.65 0.398 0.91 1.142 0.6 1.654-0.75 1.216-2.18 1.188-2.95-0.057zm19.49-0.982c1.71-1.519 1.95-2.039 0.75-1.654-2.51 0.807-2.16 0.121 1-1.936 1.72-1.116 2.31-1.254 1.59-0.365-0.64 0.784-1.09 1.82-1 2.303s-0.96 1.551-2.34 2.373l-2.5 1.495 2.5-2.216zm-12.14-3.052c2.4-1.088 4.65-1.959 5-1.936 1.26 0.083-6.39 3.875-7.86 3.894-0.82 0.011 0.46-0.87 2.86-1.958zm-42.94 4.569c4.36-10.477 8.36-24.255 8.86-30.547 0.49-6.123-2.34-23.013-4.3-25.696-1.02-1.3983-1.55-1.4929-2.75-0.4957-0.82 0.678-2.94 1.111-4.73 0.9622-2.853-0.2377-3.488 0.1894-5.249 3.5346-3.292 6.2529-4.431 17.353-2.552 24.878l1.578 6.317 0.112-6.917c0.19-11.722 0.908-6.916 1.706 11.417 1.307 30.011 1.08 28.014 2.906 25.603 0.789-1.044 2.779-5.119 4.419-9.056zm-3.8 3.953c-0.04-0.55 0.81-4.15 1.89-8s1.74-5.393 1.47-3.428c-0.55 3.895-3.23 13.046-3.36 11.428zm4.34-15.961c-0.38-3.097-0.42-5.91-0.08-6.251 0.34-0.342 0.67 0.916 0.72 2.795 0.09 3.208 0.15 3.264 0.95 0.917 0.57-1.686 0.66-0.872 0.27 2.5-0.32 2.75-0.71 5.15-0.86 5.334-0.16 0.184-0.61-2.199-1-5.295zm2.79-10.039c-0.01-2.2 0.19-3.218 0.44-2.262s0.26 2.756 0.02 4-0.45 0.462-0.46-1.738zm-1.95-2.5c0-3.025 0.19-4.262 0.42-2.75 0.23 1.513 0.23 3.988 0 5.5-0.23 1.513-0.42 0.275-0.42-2.75zm-8-3c0-3.025 0.188-4.262 0.417-2.75 0.229 1.513 0.229 3.988 0 5.5-0.229 1.513-0.417 0.275-0.417-2.75zm11.04-6.5c0.01-4.4 0.18-6.076 0.39-3.724 0.22 2.353 0.21 5.953 0 8-0.22 2.048-0.39 0.124-0.39-4.276zm-10.144-5c-0.021-1.65 0.187-2.446 0.461-1.769s0.29 2.027 0.037 3c-0.254 0.973-0.478 0.419-0.498-1.231zm-49.696 37.527c-5.118-5.085-7.934-8.351-8.246-9.565-1.106-4.311-8.303-9.462-13.221-9.462-2.322 0-6.032 3.317-6.032 5.393 0 0.766-0.736 1.676-1.636 2.021-1.479 0.567-1.455 0.828 0.247 2.709 1.036 1.145 3.235 2.772 4.886 3.616 2.909 1.487 2.953 1.476 1.405-0.352-2.846-3.36-3.292-4.948-0.739-2.628 1.367 1.243 2.759 1.985 3.095 1.65 0.335-0.335 2.327 0.74 4.425 2.389 3.465 2.723 6.057 3.984 8.817 4.289 0.55 0.061 1.842 0.561 2.87 1.111 1.327 0.71 1.673 0.681 1.191-0.098-1.161-1.879 1.032-1.207 2.939 0.9 0.995 1.1 2.302 2 2.904 2s-0.705-1.788-2.905-3.973zm-9.351-1.744c-1.511-1.181-1.503-1.237 0.102-0.678 3.064 1.067 1.902-0.326-3.5-4.193-5.702-4.082-8.231-6.236-5.75-4.895 0.825 0.446 2.694 1.637 4.154 2.647 3.596 2.487 4.557 2.311 2.258-0.414-1.75-2.075-1.687-2.064 0.814 0.145 1.492 1.318 2.497 2.744 2.233 3.17-0.263 0.427 0.882 1.84 2.544 3.141 2.712 2.122 2.806 2.365 0.908 2.365-1.163 0-2.857-0.579-3.763-1.288zm2.724-3.033c-1.244-1.586-1.208-1.621 0.378-0.377 1.666 1.306 2.195 2.127 1.372 2.127-0.207 0-0.995-0.787-1.75-1.75zm-4-6c-1.244-1.586-1.208-1.621 0.378-0.377 0.962 0.754 1.75 1.542 1.75 1.75 0 0.823-0.821 0.293-2.128-1.373zm-7.91-3.322l-3.462-3.072 3.75 2.691c3.314 2.378 4.392 3.453 3.462 3.453-0.158 0-1.846-1.382-3.75-3.072zm108.71-0.428c0-1.664-1.24-2.006-2.12-0.585-0.31 0.503 0 1.142 0.69 1.421 0.7 0.278 1.3 0.542 1.34 0.585 0.05 0.044 0.09-0.596 0.09-1.421zm-68.701-3.084c-0.54-1.421-0.802-2.884-0.58-3.25 0.221-0.366-0.277-1.294-1.107-2.061-1.32-1.222-1.431-1.097-0.89 1l0.619 2.395-1.158-2.252c-0.943-1.831-0.845-2.598 0.523-4.11 1.241-1.372 1.451-2.484 0.8-4.248-0.484-1.314-0.685-3.974-0.445-5.91 0.322-2.611-0.073-3.98-1.53-5.299-1.888-1.708-2.11-1.697-5.613 0.27-2.007 1.127-4.372 2.049-5.257 2.049-1.347 0-1.511 0.83-1.004 5.106 0.591 4.99 2 7.894 3.831 7.894 0.502 0 0.427-0.909-0.168-2.021-0.595-1.111-0.809-2.461-0.476-3 0.332-0.538 0.142-0.979-0.423-0.979s-0.744-0.738-0.398-1.64c0.451-1.175 1.154-0.303 2.481 3.075 1.019 2.593 1.649 5.044 1.4 5.446-0.248 0.402 1.172 2.056 3.156 3.675 1.985 1.619 4.307 3.732 5.162 4.694 2.076 2.339 2.236 2.216 1.077-0.834zm-8.345-8.955c-0.965-2.514-0.68-3.163 0.499-1.136 0.584 1.004 0.85 2.036 0.593 2.293-0.257 0.258-0.749-0.263-1.092-1.157zm4.698-0.711c0.339-0.962 0.194-1.75-0.321-1.75-0.516 0-0.65-0.749-0.299-1.664 0.401-1.044 0.241-1.419-0.426-1.006-1.525 0.942-2.575-2.45-1.161-3.747 0.886-0.813 1.018-0.584 0.531 0.917-0.65 2-0.65 2 0.987 0 1.349-1.649 1.53-1.691 1.03-0.241-0.333 0.967-0.152 2.953 0.403 4.413 0.724 1.904 0.675 2.961-0.175 3.741-0.886 0.813-1.03 0.647-0.569-0.663zm-4.321-9.691c0-0.582 0.45-1.059 1-1.059s1 0.199 1 0.441c0 0.243-0.45 0.719-1 1.059s-1 0.142-1-0.441zm87.009 3.34c4.01-3.756 4.84-4.197 4.49-2.398-0.23 1.212-0.91 2.792-1.51 3.512-0.79 0.946-0.77 1.504 0.05 2.011 1.57 0.968 2.81-0.509 3.55-4.222 0.49-2.447 0.16-3.532-1.48-4.941-1.16-0.993-2.11-2.38-2.11-3.083s-0.81-1.278-1.81-1.278c-3.24 0-5.1 2.354-5.55 7-0.24 2.475-0.75 5.288-1.14 6.25-1.13 2.787 0.24 2.077 5.51-2.851zm-29.84-2.206c1.01-0.718 1.83-1.942 1.83-2.718 0-0.777 0.59-1.185 1.31-0.908 0.73 0.277 2.15-0.417 3.17-1.543 1.57-1.74 1.71-2.758 0.94-6.785-0.81-4.1563-1.26-4.7778-3.67-5.0554-1.51-0.174-2.75-0.7365-2.75-1.25 0-1.9-2.92-0.8486-5.01 1.8017-1.59 2.024-1.99 3.5192-1.53 5.7497 0.34 1.658 0.64 3.915 0.65 5.015 0.02 1.1 0.27 4.007 0.55 6.46 0.46 3.858 0.67 4.196 1.61 2.5 0.59-1.078 1.9-2.548 2.9-3.267zm-4.14 0.307c0-0.55 0.44-1.675 0.97-2.5s0.97-1.05 0.97-0.5-0.44 1.675-0.97 2.5-0.97 1.05-0.97 0.5zm3.96-5.083c-0.02-1.604-0.18-1.672-0.99-0.417-1.14 1.761-1.19 0.347-0.09-2.463 0.69-1.758 0.84-1.667 1.48 0.868 0.39 1.557 0.46 3.078 0.16 3.38-0.3 0.301-0.56-0.314-0.56-1.368zm3.03-2c0-1.054 0.47-2.592 1.03-3.417 0.74-1.095 0.83-0.691 0.34 1.5-0.82 3.677-1.39 4.475-1.37 1.917zm-7.46-2.327c-0.73-1.169 0.38-4.0899 1.55-4.0899 0.49 0 0.89 0.45 0.89 1 0 0.5499-0.44 0.9999-0.97 0.9999s-0.71 0.675-0.39 1.5c0.62 1.63-0.17 2.065-1.08 0.59zm6.52-2.507c-0.04-1.0538 0.19-1.6444 0.52-1.3121 0.34 0.3323 0.37 1.1951 0.08 1.9171-0.32 0.797-0.55 0.56-0.6-0.605zm30.71 13.612c1.97-2.977 1.08-2.766-1.86 0.442-1.34 1.451-1.79 2.439-1.01 2.195 0.77-0.243 2.07-1.429 2.87-2.637zm-8.59 368.3c-0.02-1.65 0.18-2.45 0.46-1.77 0.27 0.68 0.29 2.03 0.03 3-0.25 0.97-0.47 0.42-0.49-1.23zm7.83-46.42c-0.02-5.18 0.2-9.19 0.47-8.91 1.14 1.14 1.66 14.71 0.64 16.48-0.83 1.42-1.09-0.36-1.11-7.57zm-1.95 4.5c-0.04-1.05 0.19-1.64 0.52-1.31 0.34 0.33 0.37 1.2 0.08 1.92-0.32 0.8-0.55 0.56-0.6-0.61zm2.12-50.08c-0.02-1.65 0.18-2.45 0.46-1.77 0.27 0.68 0.29 2.03 0.03 3-0.25 0.97-0.47 0.42-0.49-1.23zm0.17-16.5c0-5.77 0.17-8.14 0.37-5.25s0.2 7.61 0 10.5-0.37 0.53-0.37-5.25zm-1.1-18c0-2.47 0.2-3.49 0.44-2.25 0.23 1.24 0.23 3.26 0 4.5-0.24 1.24-0.44 0.23-0.44-2.25zm-0.02-8.5c-0.01-2.2 0.19-3.22 0.44-2.26 0.25 0.95 0.26 2.75 0.02 4-0.24 1.24-0.45 0.46-0.46-1.74zm-0.05-9c-0.02-1.65 0.18-2.45 0.46-1.77 0.27 0.68 0.29 2.03 0.03 3-0.25 0.97-0.47 0.42-0.49-1.23zm-0.9-18.5c0-3.02 0.19-4.26 0.42-2.75s0.23 3.99 0 5.5-0.42 0.28-0.42-2.75zm-1.18-10.31c-0.07-2.92-0.51-4.57-1.12-4.19-1.24 0.76-1.29-2.49-0.08-4.41 1.03-1.63 2.59 8.41 1.8 11.53-0.27 1.03-0.54-0.28-0.6-2.93zm-124.68-3.25c-1.864-1.49-1.852-1.51 0.309-0.46 1.237 0.6 2.25 1.3 2.25 1.56 0 0.76-0.519 0.54-2.559-1.1zm118.64-23.86c-0.04-1.05 0.19-1.64 0.52-1.31 0.34 0.33 0.37 1.2 0.08 1.92-0.32 0.8-0.55 0.56-0.6-0.61zm-2-8c-0.04-1.05 0.19-1.64 0.52-1.31 0.34 0.33 0.37 1.2 0.08 1.92-0.32 0.8-0.55 0.56-0.6-0.61z"/>
  <metadata>
    <rdf:RDF>
      <cc:Work>
        <dc:format>image/svg+xml</dc:format>
        <dc:type rdf:resource="http://purl.org/dc/dcmitype/StillImage"/>
        <cc:license rdf:resource="http://creativecommons.org/licenses/publicdomain/"/>
        <dc:publisher>
          <cc:Agent rdf:about="http://openclipart.org/">
            <dc:title>Openclipart</dc:title>
          </cc:Agent>
        </dc:publisher>
        <dc:title>Calendula</dc:title>
        <dc:date>2009-03-25T16:22:44</dc:date>
        <dc:description>Marigold flower.&#xD;\n&#xD;\nSource: http://commons.wikimedia.org/wiki/File:Calendula_(PSF).jpg&#xD;\n&#xD;\nInfo: http://en.wikipedia.org/wiki/Calendula</dc:description>
        <dc:source>http://openclipart.org/detail/23319/calendula-by-warszawianka-23319</dc:source>
        <dc:creator>
          <cc:Agent>
            <dc:title>warszawianka</dc:title>
          </cc:Agent>
        </dc:creator>
        <dc:subject>
          <rdf:Bag>
            <rdf:li>autumn</rdf:li>
            <rdf:li>biology</rdf:li>
            <rdf:li>botany</rdf:li>
            <rdf:li>clip art</rdf:li>
            <rdf:li>clipart</rdf:li>
            <rdf:li>externalsource</rdf:li>
            <rdf:li>flower</rdf:li>
            <rdf:li>image</rdf:li>
            <rdf:li>line art</rdf:li>
            <rdf:li>marigold</rdf:li>
            <rdf:li>media</rdf:li>
            <rdf:li>nature</rdf:li>
            <rdf:li>plant</rdf:li>
            <rdf:li>png</rdf:li>
            <rdf:li>psf</rdf:li>
            <rdf:li>public domain</rdf:li>
            <rdf:li>season</rdf:li>
            <rdf:li>summer</rdf:li>
            <rdf:li>svg</rdf:li>
            <rdf:li>wikimedia commons</rdf:li>
          </rdf:Bag>
        </dc:subject>
      </cc:Work>
      <cc:License rdf:about="http://creativecommons.org/licenses/publicdomain/">
        <cc:permits rdf:resource="http://creativecommons.org/ns#Reproduction"/>
        <cc:permits rdf:resource="http://creativecommons.org/ns#Distribution"/>
        <cc:permits rdf:resource="http://creativecommons.org/ns#DerivativeWorks"/>
      </cc:License>
    </rdf:RDF>
  </metadata>
</svg>
